<svg xmlns="http://www.w3.org/2000/svg" viewBox="0 0 427.46 188.39"><defs><style>.cls-1{fill:#fff;}.cls-2{fill:#ffdd46;}.cls-3{fill:#a4fbb3;}.cls-4{fill:#5abb93;}</style></defs><g id="Bottom_Text" data-name="Bottom Text"><path class="cls-1" d="M191.58,388.37h5.54l-.3,2.16h-7.88V376.71h2.64Z" transform="translate(-179.18 -202.44)"/><path class="cls-1" d="M218.7,390.53h-2.64V376.71h2.64Z" transform="translate(-179.18 -202.44)"/><path class="cls-1" d="M246.48,378.67h-4.9v4.14h4.26v2h-4.26v5.76h-2.64V376.71h7.82Z" transform="translate(-179.18 -202.44)"/><path class="cls-1" d="M273.46,378.67h-5.1v3.86h4.44v2h-4.44v4.06h5.46v2h-8.11V376.71h8Z" transform="translate(-179.18 -202.44)"/><path class="cls-1" d="M301.86,378.11l-1.3,1.5a4.64,4.64,0,0,0-3.1-1.18c-1.24,0-2.14.56-2.14,1.64s.54,1.44,2.84,2.16,4.1,1.76,4.1,4.36-1.94,4.24-5.24,4.24a6.92,6.92,0,0,1-5-1.9l1.39-1.52a5.19,5.19,0,0,0,3.54,1.38c1.48,0,2.54-.72,2.54-2.06,0-1.16-.58-1.68-2.74-2.34-2.9-.9-4.16-2.06-4.16-4.16,0-2.3,2-3.82,4.7-3.82A6.22,6.22,0,0,1,301.86,378.11Z" transform="translate(-179.18 -202.44)"/><path class="cls-1" d="M329.92,378.81h-3.6v11.72h-2.66V378.81h-3.72v-2.1H330.2Z" transform="translate(-179.18 -202.44)"/><path class="cls-1" d="M354.38,385.29v5.24H351.7v-5.22l-4.45-8.6h2.93l2.92,6.42,2.92-6.42h2.8Z" transform="translate(-179.18 -202.44)"/><path class="cls-1" d="M380,388.37h5.54l-.3,2.16H377.4V376.71H380Z" transform="translate(-179.18 -202.44)"/><path class="cls-1" d="M412.26,378.67h-5.1v3.86h4.44v2h-4.44v4.06h5.46v2h-8.11V376.71h8Z" transform="translate(-179.18 -202.44)"/><path class="cls-1" d="M463.44,377.87l-1.36,1.58a3.83,3.83,0,0,0-2.56-1c-1.9,0-3.38,1.4-3.38,5.14s1.44,5.12,3.42,5.12a4.5,4.5,0,0,0,2.8-1.16l1.24,1.6a5.82,5.82,0,0,1-4.16,1.68c-3.58,0-6.08-2.54-6.08-7.24s2.64-7.18,6-7.18A5.78,5.78,0,0,1,463.44,377.87Z" transform="translate(-179.18 -202.44)"/><path class="cls-1" d="M490.22,378.67h-5.1v3.86h4.44v2h-4.44v4.06h5.46v2h-8.1V376.71h8Z" transform="translate(-179.18 -202.44)"/><path class="cls-1" d="M520.28,390.53h-3.42l-4.74-11.18a43.92,43.92,0,0,1,.36,5.54v5.64h-2.4V376.71h3.34l4.82,11.2a34.2,34.2,0,0,1-.36-4.72v-6.48h2.4Z" transform="translate(-179.18 -202.44)"/><path class="cls-1" d="M549.12,378.81h-3.6v11.72h-2.66V378.81h-3.73v-2.1H549.4Z" transform="translate(-179.18 -202.44)"/><path class="cls-1" d="M575.86,378.67h-5.1v3.86h4.44v2h-4.44v4.06h5.46v2h-8.1V376.71h8Z" transform="translate(-179.18 -202.44)"/><path class="cls-1" d="M600,385h-1.68v5.54h-2.64V376.71h4.12c3.62,0,5.48,1.32,5.48,4.06,0,1.9-.92,3-2.8,3.74l3.62,6h-3Zm-1.68-1.9H600c1.64,0,2.56-.66,2.56-2.32,0-1.5-.86-2.14-2.78-2.14h-1.42Z" transform="translate(-179.18 -202.44)"/></g><g id="Wildwood"><path class="cls-1" d="M244.72,340.48H228.07L217.9,289.2l-10.45,51.28H191.28l-12.1-64.31h12.68l8.52,54.54,10.94-54.54h13.56l10.74,54.54,9.3-54.54H257Z" transform="translate(-179.18 -202.44)"/><path class="cls-1" d="M280,273.57c0,4-3.2,7.16-7.85,7.16s-7.74-3.16-7.74-7.16,3.19-7.26,7.74-7.26S280,269.47,280,273.57Zm-1.55,66.91H266V291.25h12.39Z" transform="translate(-179.18 -202.44)"/><path class="cls-1" d="M292.84,329.22v-57.7l12.4-1.3v58.63c0,2.32.87,3.44,2.9,3.44a9,9,0,0,0,2.91-.47l2.61,8.38a21,21,0,0,1-8.23,1.68C297.59,341.88,292.84,337.32,292.84,329.22Z" transform="translate(-179.18 -202.44)"/><path class="cls-1" d="M364.49,271.52v69H353.55l-.87-6.24a17.29,17.29,0,0,1-14.62,7.64c-12.78,0-19.46-10.34-19.46-26,0-15.17,7.94-26.06,20.62-26.06a18.21,18.21,0,0,1,12.88,5.31V270.22Zm-12.39,55V304c-2.71-3.17-5.62-5.21-9.78-5.21-6.39,0-10.65,5.21-10.65,17,0,12.66,3.78,17,9.88,17C346.1,332.85,349.19,330.71,352.1,326.52Z" transform="translate(-179.18 -202.44)"/><path class="cls-1" d="M430.81,340.48H415.32l-7.74-38.62-7.94,38.62h-15.2l-11.33-49.23H385.5l7.17,40.48,8.9-40.48h12.69l8.13,40.48L430,291.25H442Z" transform="translate(-179.18 -202.44)"/><path class="cls-1" d="M495.39,315.82c0,15.54-9,26.06-24.1,26.06s-24.11-9.87-24.11-26.06c0-15.45,9-26,24.2-26S495.39,299.72,495.39,315.82Zm-35.14,0c0,11.82,3.77,17,11,17s11-5.31,11-17-3.77-16.94-10.94-16.94S460.25,304.19,460.25,315.82Z" transform="translate(-179.18 -202.44)"/><path class="cls-1" d="M551.94,315.82c0,15.54-9,26.06-24.11,26.06s-24.11-9.87-24.11-26.06c0-15.45,9-26,24.21-26S551.94,299.72,551.94,315.82Zm-35.15,0c0,11.82,3.78,17,11,17s11-5.31,11-17-3.78-16.94-10.94-16.94S516.79,304.19,516.79,315.82Z" transform="translate(-179.18 -202.44)"/><path class="cls-1" d="M606.64,271.52v69H595.7l-.87-6.24a17.29,17.29,0,0,1-14.62,7.64c-12.78,0-19.46-10.34-19.46-26,0-15.17,7.94-26.06,20.62-26.06a18.21,18.21,0,0,1,12.88,5.31V270.22Zm-12.39,55V304c-2.71-3.17-5.62-5.21-9.78-5.21-6.39,0-10.65,5.21-10.65,17,0,12.66,3.77,17,9.87,17C588.25,332.85,591.34,330.71,594.25,326.52Z" transform="translate(-179.18 -202.44)"/></g><g id="Icon_Sun" data-name="Icon Sun"><path class="cls-2" d="M410.92,211a10.83,10.83,0,1,0-19.37,8.6C397.63,216.11,403.68,212.89,410.92,211Z" transform="translate(-179.18 -202.44)"/></g><g id="Icon_Bottom" data-name="Icon Bottom"><path class="cls-3" d="M395.61,253.5a53.08,53.08,0,0,0,31.33-10.19c-43.49-1.68-54.08-31.45-84.09-35.33A53.35,53.35,0,0,0,395.61,253.5Z" transform="translate(-179.18 -202.44)"/></g><g id="Icon_MIddle" data-name="Icon MIddle"><path class="cls-4" d="M421.68,213.42c-14.25.74-23.43,7.11-34.23,13.23,11,6.95,23.74,12.69,43.37,12.69l1,0a53.55,53.55,0,0,0,13.95-21,46.54,46.54,0,0,0-21.33-5C423.53,213.35,422.61,213.37,421.68,213.42Z" transform="translate(-179.18 -202.44)"/></g></svg>