<svg xmlns="http://www.w3.org/2000/svg" viewBox="0 0 427.46 187.71"><defs><style>.cls-1{fill:#fff;}.cls-2{fill:#fee157;}.cls-3{fill:#b9deb7;}.cls-4{fill:#6cc5a4;}</style></defs><title>logo</title><g id="Wildwood"><path class="cls-1" d="M244.72,340.48H228.07L217.9,289.2l-10.45,51.28H191.28l-12.1-64.31h12.68l8.52,54.54,10.94-54.54h13.56l10.74,54.54,9.3-54.54H257Z" transform="translate(-179.18 -202.44)"/><path class="cls-1" d="M280,273.57c0,4-3.2,7.16-7.85,7.16s-7.74-3.16-7.74-7.16,3.19-7.26,7.74-7.26S280,269.47,280,273.57Zm-1.55,66.91H266V291.25h12.39Z" transform="translate(-179.18 -202.44)"/><path class="cls-1" d="M292.84,329.22v-57.7l12.4-1.3v58.63c0,2.32.87,3.44,2.9,3.44a9,9,0,0,0,2.91-.47l2.61,8.38a21,21,0,0,1-8.23,1.68C297.59,341.88,292.84,337.32,292.84,329.22Z" transform="translate(-179.18 -202.44)"/><path class="cls-1" d="M364.49,271.52v69H353.55l-.87-6.24a17.29,17.29,0,0,1-14.62,7.64c-12.78,0-19.46-10.34-19.46-26,0-15.17,7.94-26.06,20.62-26.06a18.21,18.21,0,0,1,12.88,5.31V270.22Zm-12.39,55V304c-2.71-3.17-5.62-5.21-9.78-5.21-6.39,0-10.65,5.21-10.65,17,0,12.66,3.78,17,9.88,17C346.1,332.85,349.19,330.71,352.1,326.52Z" transform="translate(-179.18 -202.44)"/><path class="cls-1" d="M430.81,340.48H415.32l-7.74-38.62-7.94,38.62h-15.2l-11.33-49.23H385.5l7.17,40.48,8.9-40.48h12.69l8.13,40.48L430,291.25H442Z" transform="translate(-179.18 -202.44)"/><path class="cls-1" d="M495.39,315.82c0,15.54-9,26.06-24.1,26.06s-24.11-9.87-24.11-26.06c0-15.45,9-26,24.2-26S495.39,299.72,495.39,315.82Zm-35.14,0c0,11.82,3.77,17,11,17s11-5.31,11-17-3.77-16.94-10.94-16.94S460.25,304.19,460.25,315.82Z" transform="translate(-179.18 -202.44)"/><path class="cls-1" d="M551.94,315.82c0,15.54-9,26.06-24.11,26.06s-24.11-9.87-24.11-26.06c0-15.45,9-26,24.21-26S551.94,299.72,551.94,315.82Zm-35.15,0c0,11.82,3.78,17,11,17s11-5.31,11-17-3.78-16.94-10.94-16.94S516.79,304.19,516.79,315.82Z" transform="translate(-179.18 -202.44)"/><path class="cls-1" d="M606.64,271.52v69H595.7l-.87-6.24a17.29,17.29,0,0,1-14.62,7.64c-12.78,0-19.46-10.34-19.46-26,0-15.17,7.94-26.06,20.62-26.06a18.21,18.21,0,0,1,12.88,5.31V270.22Zm-12.39,55V304c-2.71-3.17-5.62-5.21-9.78-5.21-6.39,0-10.65,5.21-10.65,17,0,12.66,3.77,17,9.87,17C588.25,332.85,591.34,330.71,594.25,326.52Z" transform="translate(-179.18 -202.44)"/></g><g id="Bottom_Text" data-name="Bottom Text"><path class="cls-1" d="M199.14,389.85h-3.42L191,378.67a43.92,43.92,0,0,1,.36,5.54v5.64h-2.4V376h3.34l4.82,11.2a34.2,34.2,0,0,1-.36-4.72V376h2.4Z" transform="translate(-179.18 -202.44)"/><path class="cls-1" d="M220.16,386.65h-4.58l-.86,3.2H212L216.28,376h3.26l4.28,13.82H221Zm-.52-2-1.78-6.6-1.76,6.6Z" transform="translate(-179.18 -202.44)"/><path class="cls-1" d="M244.28,378.13h-3.6v11.72H238V378.13H234.3V376h10.26Z" transform="translate(-179.18 -202.44)"/><path class="cls-1" d="M267.68,385.33c0,2.78-1.78,4.82-5.16,4.82s-5.12-2-5.12-4.82V376H260v9.16c0,1.94.78,2.9,2.48,2.9s2.5-1,2.5-2.9V376h2.66Z" transform="translate(-179.18 -202.44)"/><path class="cls-1" d="M286.36,384.31h-1.68v5.54H282V376h4.13c3.62,0,5.48,1.32,5.48,4.06,0,1.9-.92,3-2.8,3.74l3.62,6h-3Zm-1.68-1.9h1.64c1.64,0,2.56-.66,2.56-2.32,0-1.5-.86-2.14-2.78-2.14h-1.42Z" transform="translate(-179.18 -202.44)"/><path class="cls-1" d="M312,386.65h-4.58l-.86,3.2h-2.75L308.16,376h3.26l4.28,13.82h-2.8Zm-.52-2-1.78-6.6-1.76,6.6Z" transform="translate(-179.18 -202.44)"/><path class="cls-1" d="M331.19,387.69h5.55l-.3,2.16h-7.89V376h2.64Z" transform="translate(-179.18 -202.44)"/><path class="cls-1" d="M373.86,378H369v4.14h4.27v2H369v5.76h-2.64V376h7.83Z" transform="translate(-179.18 -202.44)"/><path class="cls-1" d="M398.76,382.93c0,4.56-2.34,7.22-6,7.22s-6.07-2.58-6.07-7.2,2.36-7.22,6.07-7.22S398.76,378.31,398.76,382.93Zm-9.33,0c0,3.72,1.26,5.18,3.29,5.18s3.26-1.46,3.26-5.2-1.18-5.18-3.26-5.18S389.43,379.23,389.43,383Z" transform="translate(-179.18 -202.44)"/><path class="cls-1" d="M423.9,382.93c0,4.56-2.34,7.22-6,7.22s-6.07-2.58-6.07-7.2,2.36-7.22,6.07-7.22S423.9,378.31,423.9,382.93Zm-9.33,0c0,3.72,1.26,5.18,3.29,5.18s3.26-1.46,3.26-5.2-1.18-5.18-3.26-5.18S414.57,379.23,414.57,383Z" transform="translate(-179.18 -202.44)"/><path class="cls-1" d="M448.18,382.87c0,5.6-3.43,7-6.73,7h-3.76V376h3.4C444.74,376,448.18,377.15,448.18,382.87ZM440.33,378v9.86h1.3c2.07,0,3.77-.92,3.77-5s-1.81-4.86-3.85-4.86Z" transform="translate(-179.18 -202.44)"/><path class="cls-1" d="M491.4,389.85h-2.58l-.36-5.78c-.12-2-.22-4.18-.18-5.64l-2.52,9.92h-2.51l-2.68-9.94c.08,1.86,0,3.76-.07,5.74l-.35,5.7h-2.56l1.1-13.82h3.4l2.47,9.68,2.32-9.68h3.44Z" transform="translate(-179.18 -202.44)"/><path class="cls-1" d="M512,386.65h-4.58l-.87,3.2h-2.74L508.08,376h3.26l4.28,13.82h-2.8Zm-.52-2-1.78-6.6-1.77,6.6Z" transform="translate(-179.18 -202.44)"/><path class="cls-1" d="M532.79,384.31h-1.68v5.54h-2.64V376h4.12c3.62,0,5.49,1.32,5.49,4.06,0,1.9-.93,3-2.81,3.74l3.63,6h-3Zm-1.68-1.9h1.64c1.64,0,2.56-.66,2.56-2.32,0-1.5-.86-2.14-2.78-2.14h-1.42Z" transform="translate(-179.18 -202.44)"/><path class="cls-1" d="M554.65,389.85H552V376h2.64Zm3-7.56,5.16,7.56h-3.14l-4.88-7.38,4.78-6.44h2.87Z" transform="translate(-179.18 -202.44)"/><path class="cls-1" d="M583.33,378h-5.1v3.86h4.44v2h-4.44v4.06h5.46v2h-8.1V376h8Z" transform="translate(-179.18 -202.44)"/><path class="cls-1" d="M606.12,378.13h-3.61v11.72h-2.66V378.13h-3.72V376h10.26Z" transform="translate(-179.18 -202.44)"/></g><g id="Icon_Sun" data-name="Icon Sun"><path class="cls-2" d="M410.92,211a10.83,10.83,0,1,0-19.37,8.6C397.63,216.11,403.68,212.89,410.92,211Z" transform="translate(-179.18 -202.44)"/></g><g id="Icon_Bottom" data-name="Icon Bottom"><path class="cls-3" d="M395.61,253.5a53.08,53.08,0,0,0,31.33-10.19c-43.49-1.68-54.08-31.45-84.09-35.33A53.35,53.35,0,0,0,395.61,253.5Z" transform="translate(-179.18 -202.44)"/></g><g id="Icon_MIddle" data-name="Icon MIddle"><path class="cls-4" d="M421.68,213.42c-14.25.74-23.43,7.11-34.23,13.23,11,6.95,23.74,12.69,43.37,12.69l1,0a53.55,53.55,0,0,0,13.95-21,46.54,46.54,0,0,0-21.33-5C423.53,213.35,422.61,213.37,421.68,213.42Z" transform="translate(-179.18 -202.44)"/></g></svg>