<svg xmlns="http://www.w3.org/2000/svg" viewBox="0 0 96 96"><defs><style>.cls-1{fill:#ce4647;}.cls-2{fill:#fcf5f5;}.cls-3{fill:#fefdfd;}</style></defs><g id="Layer_2" data-name="Layer 2"><g id="Layer_1-2" data-name="Layer 1"><path class="cls-1" d="M0,89V7Q.77.76,7,0H89q6.24.77,7,7V89q-.77,6.24-7,7H7Q.76,95.23,0,89Z"/><path class="cls-2" d="M7,0A21.48,21.48,0,0,0,0,7C0,0,0,0,7,0Z"/><path class="cls-2" d="M96,7a21.48,21.48,0,0,0-7-7C96,0,96,0,96,7Z"/><path class="cls-2" d="M0,89a21.48,21.48,0,0,0,7,7C0,96,0,96,0,89Z"/><path class="cls-2" d="M89,96a21.48,21.48,0,0,0,7-7C96,96,96,96,89,96Z"/><path class="cls-3" d="M56,55.48c4.06-2.9,7.32-5,8.56-9.26.63-2.14,1.48-4.82,4.67-2,1.14,1,1.88-.73,2.82-1.14,2.07-.88,4-1.76,6,.2s1,4-.18,5.9c-1,1.62-2.25,3.06-4.09,5.51,3.66-1.36,5.35-3.64,7.45-5.32,1-.78,2-2.31,3.36-1,1.21,1.11.5,2.5-.5,3.49-2.83,2.82-5.55,5.83-9.17,7.63-2.11,1-4.65,1.7-6.44-.43-1.6-1.91,0-3.72,1-5.4s2.15-3.44,3.73-6c-4.06,1.64-5.61,4.41-6.89,7.14-2,4.36-3.63,8.92-5.51,13.35-.71,1.67-1.6,3.75-3.91,3-2.65-.91-1.21-3.1-.7-4.66.78-2.33,1.93-4.53,3.39-7.86-4.85,3.06-9.43,1.36-13.35,1a23.36,23.36,0,0,0-7.67.44c-4.1.93-6.3-1.19-5.21-5.19A77.09,77.09,0,0,1,37.2,44.52c.64-1.48,1.71-3.23,3.77-2,1.75,1,.87,2.51.22,3.93C40,49,38.2,51.52,38.33,55c4.2-1,5.4-4.38,7-7.33.62-1.17,1-2.45,1.55-3.67s1.33-2.24,2.59-1.85c1.47.45,1.85,1.89,1.35,3.3-.72,2-1.7,4-2.4,6-.39,1.12-1.33,2.77.35,3.36,1.5.53,2.34-1.06,2.83-2.28,2.53-6.31,5-12.67,7.44-19,.36-.93.6-1.91,1-2.8.68-1.4,1.75-2.78,3.43-2.16,2.15.81,1.48,2.49.78,4.16C61.5,39.37,58.83,46,56.18,52.62A12.74,12.74,0,0,0,56,55.48Z"/><path class="cls-3" d="M23.66,57.28c-3.34,1.63-6.26,5.19-10.11,2.42-4.12-3-3.08-7.59-2.18-11.53,1.81-7.91,5.34-15.08,12-20.19,4.72-3.64,10.37-2.56,12.79,2.14.89,1.73,1,3.29-.71,4.39S32.93,34,32.33,33C30,29,27.55,30.17,25.17,32.68c-5,5.23-7.66,11.59-9,18.6-.24,1.31-.24,2.77,1.14,3.57s2.62-.14,3.56-1c3.14-2.95,6.3-5.87,7.32-10.41.4-1.78,1-4.59,3.6-3.69,2.44.83,1.41,3.57.92,5.31-1.62,5.75-3.56,11.41-5.39,17.1-.52,1.59-1.21,3.67-3.12,3.2C22.16,64.82,23,62.59,23.2,61,23.32,59.9,24.25,58.91,23.66,57.28Z"/></g></g></svg>