<?xml version="1.0" encoding="UTF-8" standalone="no"?>
<!DOCTYPE svg PUBLIC "-//W3C//DTD SVG 1.1//EN" "http://www.w3.org/Graphics/SVG/1.1/DTD/svg11.dtd">
<svg version="1.1" xmlns="http://www.w3.org/2000/svg" xmlns:xlink="http://www.w3.org/1999/xlink" preserveAspectRatio="xMidYMid meet" viewBox="-0.9999999999999964 -0.9999999999999689 573.992915605268 644" width="100" height="112.28"><defs><path d="M548.01 208.3C548.01 182.01 534.08 157.68 511.41 144.36C462.75 115.77 376.79 65.26 324.14 34.32C296.34 18 261.8 18.37 234.36 35.29C217.73 45.54 84.75 127.54 68.13 137.79C39.83 155.23 22.6 186.1 22.6 219.35C22.6 240.05 22.6 405.69 22.6 426.4C22.6 459.38 40.1 489.87 68.56 506.52C85.89 516.64 224.46 597.64 241.78 607.77C264.81 621.23 293.24 621.53 316.54 608.55C335.72 597.87 489.14 512.41 508.32 501.73C532.8 488.09 547.97 462.27 547.97 434.25C547.97 432.67 547.97 424.76 547.97 410.52L548 410.52C548.01 289.19 548.01 221.79 548.01 208.3Z" id="awWNUsrFV"></path><path d="M280.73 0L281.14 0.01L283.48 0.01L283.89 0.02L283.94 0.02L284.35 0.04L284.39 0.04L284.8 0.06L284.84 0.06L285.25 0.07L285.3 0.07L285.7 0.09L285.75 0.09L286.14 0.11L286.18 0.11L286.59 0.13L286.64 0.13L287.06 0.16L287.1 0.16L287.5 0.19L287.53 0.19L287.93 0.22L287.98 0.22L288.39 0.26L288.43 0.26L288.83 0.29L288.87 0.29L289.29 0.32L289.34 0.32L289.75 0.36L289.8 0.36L290.22 0.39L290.26 0.39L290.66 0.42L290.71 0.42L291.11 0.45L291.16 0.45L291.57 0.49L291.62 0.49L292.03 0.54L292.08 0.54L292.5 0.58L292.53 0.58L292.93 0.64L292.97 0.64L293.37 0.68L293.42 0.68L293.84 0.73L293.89 0.73L294.3 0.78L294.33 0.78L294.73 0.83L294.78 0.83L295.19 0.88L295.24 0.88L295.64 0.95L295.69 0.97L296.1 1.03L296.15 1.03L296.55 1.1L296.58 1.1L297 1.17L297.05 1.17L297.44 1.23L297.49 1.23L297.89 1.3L297.92 1.3L298.34 1.37L298.39 1.37L298.78 1.43L298.83 1.45L299.23 1.51L299.28 1.53L299.67 1.61L299.72 1.61L300.12 1.68L300.17 1.68L300.57 1.76L300.61 1.76L301.03 1.84L301.06 1.84L301.46 1.92L301.51 1.92L301.91 2.01L301.94 2.01L302.36 2.09L302.4 2.11L302.82 2.19L302.85 2.19L303.25 2.29L303.3 2.31L303.7 2.4L303.75 2.4L304.16 2.5L304.19 2.52L304.59 2.6L304.64 2.62L305.03 2.71L305.07 2.72L305.47 2.82L305.52 2.82L305.91 2.92L305.96 2.94L306.36 3.03L306.39 3.05L306.8 3.15L306.84 3.17L307.24 3.27L307.29 3.28L307.68 3.38L307.71 3.38L308.11 3.5L308.16 3.5L308.57 3.59L308.62 3.61L309.02 3.71L309.07 3.71L309.47 3.83L309.51 3.84L309.91 3.96L309.96 3.98L310.36 4.1L310.41 4.11L310.81 4.23L310.84 4.24L311.24 4.36L311.28 4.37L311.68 4.49L311.73 4.51L312.13 4.62L312.18 4.64L312.58 4.77L312.61 4.79L313.01 4.92L313.05 4.92L313.45 5.05L313.5 5.05L313.9 5.19L313.95 5.2L314.35 5.33L314.4 5.35L314.8 5.48L314.83 5.5L315.22 5.63L315.27 5.65L315.67 5.78L315.7 5.8L316.1 5.93L316.13 5.95L316.52 6.08L316.57 6.1L316.95 6.23L317 6.25L317.38 6.39L317.42 6.41L317.82 6.56L317.87 6.57L318.25 6.72L318.28 6.74L318.68 6.87L318.71 6.89L319.11 7.04L319.16 7.06L319.56 7.2L319.6 7.22L319.99 7.37L320.04 7.38L320.42 7.55L320.45 7.57L320.85 7.71L320.9 7.73L321.28 7.9L321.33 7.92L321.73 8.08L321.78 8.1L322.17 8.26L322.2 8.28L322.6 8.45L322.63 8.46L323.02 8.62L323.05 8.64L323.43 8.81L323.46 8.82L323.86 8.99L323.89 9.01L324.27 9.17L324.32 9.19L324.7 9.35L324.75 9.37L325.14 9.54L325.17 9.55L325.55 9.73L325.6 9.75L325.98 9.93L326.02 9.95L326.41 10.13L326.44 10.15L326.82 10.33L326.85 10.35L327.24 10.53L327.28 10.54L327.66 10.73L327.71 10.74L328.09 10.93L328.14 10.94L328.53 11.12L328.56 11.14L328.94 11.34L328.97 11.37L329.35 11.55L329.38 11.57L329.75 11.76L329.8 11.78L330.18 11.97L330.21 11.98L330.59 12.18L330.64 12.2L331 12.4L331.05 12.43L331.44 12.63L331.48 12.65L331.87 12.84L331.9 12.86L332.26 13.06L332.31 13.09L332.7 13.29L332.72 13.32L333.09 13.54L333.12 13.57L333.49 13.79L333.53 13.8L333.9 14.02L333.93 14.04L334.3 14.25L334.33 14.28L334.69 14.5L334.74 14.53L335.09 14.75L335.12 14.75L522.54 124.86L522.85 125.04L522.88 125.08L523.2 125.26L523.24 125.27L523.54 125.47L523.58 125.51L523.88 125.69L523.91 125.72L524.2 125.9L524.24 125.92L524.54 126.1L524.57 126.12L524.87 126.3L524.9 126.32L525.2 126.5L525.25 126.51L525.55 126.71L525.58 126.73L525.87 126.93L525.92 126.94L526.22 127.13L526.25 127.15L526.55 127.34L526.59 127.38L526.89 127.57L526.92 127.61L527.2 127.79L527.25 127.81L527.55 128L527.58 128.02L527.87 128.22L527.91 128.24L528.19 128.43L528.22 128.45L528.51 128.65L528.54 128.66L528.82 128.86L528.85 128.9L529.13 129.09L529.17 129.11L529.45 129.33L529.5 129.36L529.78 129.56L529.81 129.58L530.09 129.77L530.13 129.79L530.41 129.99L530.44 130.02L530.72 130.22L530.75 130.24L531.03 130.43L531.07 130.47L531.35 130.67L531.38 130.7L531.67 130.91L531.71 130.95L531.98 131.16L532.03 131.2L532.31 131.41L532.36 131.43L532.65 131.64L532.67 131.67L532.95 131.89L532.99 131.93L533.25 132.14L533.3 132.17L533.59 132.4L533.63 132.45L534.16 132.89L534.23 132.93L534.76 133.38L534.83 133.43L535.37 133.87L535.44 133.92L535.98 134.37L536.05 134.42L536.58 134.87L536.64 134.94L537.17 135.38L537.24 135.43L537.75 135.89L537.82 135.94L538.33 136.41L538.39 136.45L538.91 136.94L538.98 136.99L539.47 137.45L539.54 137.5L540.05 137.98L540.12 138.04L540.61 138.52L540.68 138.59L541.18 139.07L541.24 139.14L541.72 139.62L541.79 139.68L542.27 140.18L542.34 140.25L542.82 140.74L542.87 140.81L543.34 141.3L543.41 141.37L543.87 141.87L543.94 141.93L544.4 142.43L544.47 142.49L544.93 142.99L545 143.06L545.46 143.57L545.53 143.64L545.97 144.17L546.02 144.23L546.48 144.74L546.55 144.81L547 145.34L547.06 145.41L547.51 145.94L547.56 146L548.01 146.53L548.08 146.59L548.5 147.12L548.55 147.19L548.99 147.72L549.05 147.78L549.48 148.33L549.53 148.4L549.94 148.94L549.99 149.01L550.41 149.55L550.45 149.62L550.87 150.17L550.92 150.25L551.33 150.81L551.38 150.88L551.79 151.43L551.84 151.51L552.24 152.07L552.29 152.14L552.69 152.7L552.73 152.77L553.14 153.33L553.18 153.41L553.57 153.97L553.62 154.06L553.99 154.63L554.04 154.72L554.41 155.28L554.46 155.35L554.82 155.91L554.87 155.97L555.25 156.55L555.3 156.62L555.67 157.2L555.72 157.28L556.06 157.86L556.11 157.94L556.48 158.52L556.53 158.6L556.87 159.18L556.92 159.26L557.27 159.86L557.32 159.93L557.65 160.52L557.7 160.61L558.03 161.2L558.08 161.29L558.41 161.88L558.46 161.96L558.79 162.56L558.83 162.64L559.15 163.25L559.19 163.34L559.5 163.95L559.54 164.03L559.85 164.64L559.9 164.71L560.2 165.34L560.23 165.42L560.54 166.03L560.58 166.11L560.88 166.73L560.92 166.81L561.21 167.44L561.24 167.52L561.52 168.15L561.56 168.23L561.84 168.86L561.87 168.94L562.15 169.57L562.18 169.65L562.45 170.28L562.48 170.36L562.74 170.99L562.78 171.08L563.03 171.72L563.06 171.81L563.31 172.43L563.34 172.51L563.59 173.16L563.62 173.24L563.87 173.89L563.91 173.97L564.15 174.62L564.19 174.7L564.42 175.35L564.45 175.43L564.66 176.07L564.7 176.16L564.91 176.8L564.95 176.88L565.16 177.53L565.19 177.61L565.41 178.27L565.43 178.36L565.62 179L565.66 179.08L565.85 179.74L565.87 179.83L566.07 180.49L566.11 180.57L566.3 181.23L566.34 181.32L566.52 181.98L566.55 182.06L566.73 182.72L566.75 182.8L566.92 183.46L566.95 183.56L567.13 184.24L567.15 184.33L567.31 185L567.34 185.09L567.49 185.76L567.53 185.85L567.69 186.52L567.71 186.62L567.86 187.3L567.88 187.38L568.02 188.06L568.04 188.15L568.17 188.82L568.19 188.91L568.32 189.58L568.34 189.67L568.47 190.35L568.48 190.43L568.6 191.12L568.62 191.21L568.73 191.89L568.75 191.98L568.86 192.68L568.88 192.78L568.98 193.47L569 193.57L569.1 194.25L569.1 194.32L569.14 194.68L569.14 194.71L569.18 195.06L569.18 195.11L569.23 195.46L569.23 195.49L569.28 195.84L569.28 195.89L569.33 196.24L569.35 196.28L569.39 196.63L569.39 196.68L569.43 197.03L569.44 197.06L569.48 197.41L569.5 197.46L569.53 197.81L569.53 197.86L569.56 198.2L569.58 198.25L569.61 198.6L569.63 198.65L569.66 199L569.66 199.05L569.69 199.4L569.69 199.44L569.73 199.79L569.73 199.84L569.76 200.19L569.76 200.23L569.79 200.59L569.79 200.63L569.81 200.98L569.81 201.03L569.82 201.4L569.82 201.45L569.86 201.81L569.86 201.84L569.88 202.19L569.88 202.24L569.89 202.59L569.89 202.64L569.91 202.98L569.91 203.03L569.93 203.38L569.93 203.43L569.94 203.79L569.94 203.84L569.96 204.19L569.96 204.24L569.97 204.59L569.97 204.62L569.99 204.97L569.99 435.88L569.97 436.26L569.97 436.75L569.96 437.12L569.96 437.17L569.94 437.54L569.94 437.57L569.93 437.95L569.93 438L569.91 438.37L569.91 438.4L569.89 438.76L569.89 438.81L569.88 439.18L569.86 439.23L569.84 439.59L569.84 439.64L569.82 440L569.82 440.04L569.81 440.42L569.81 440.46L569.78 440.85L569.78 440.88L569.74 441.26L569.74 441.31L569.71 441.67L569.71 441.72L569.69 442.09L569.69 442.13L569.66 442.5L569.66 442.55L569.63 442.92L569.63 442.96L569.59 443.33L569.59 443.37L569.56 443.74L569.54 443.77L569.51 444.15L569.5 444.2L569.46 444.57L569.46 444.62L569.43 444.98L569.41 445.03L569.36 445.39L569.36 445.44L569.31 445.81L569.31 445.84L569.26 446.2L569.26 446.25L569.22 446.62L569.2 446.67L569.15 447.05L569.13 447.1L569.08 447.46L569.06 447.51L569.01 447.87L569.01 447.92L568.97 448.29L568.97 448.34L568.92 448.7L568.9 448.75L568.85 449.12L568.83 449.17L568.77 449.53L568.77 449.56L568.72 449.93L568.72 449.96L568.65 450.32L568.63 450.37L568.58 450.74L568.57 450.79L568.52 451.15L568.52 451.18L568.45 451.55L568.45 451.58L568.39 451.94L568.39 451.98L568.32 452.34L568.32 452.39L568.25 452.74L568.24 452.79L568.17 453.14L568.16 453.18L568.09 453.55L568.07 453.6L567.99 453.96L567.99 453.99L567.9 454.36L567.9 454.39L567.84 454.74L567.84 454.79L567.76 455.15L567.76 455.19L567.69 455.55L567.67 455.58L567.59 455.93L567.59 455.96L567.51 456.31L567.51 456.36L567.43 456.71L567.41 456.76L567.33 457.11L567.31 457.15L567.23 457.5L567.21 457.53L567.13 457.88L567.11 457.92L567.03 458.26L567.01 458.31L566.92 458.66L566.9 458.71L566.81 459.06L566.8 459.11L566.7 459.45L566.7 459.5L566.6 459.87L566.58 459.92L566.49 460.26L566.49 460.31L566.38 460.66L566.37 460.71L566.27 461.06L566.25 461.11L566.15 461.47L566.13 461.5L566.04 461.85L566.02 461.89L565.92 462.23L565.9 462.28L565.79 462.63L565.77 462.68L565.68 463.03L565.66 463.06L565.56 463.41L565.54 463.46L565.44 463.81L565.43 463.84L565.31 464.19L565.29 464.23L565.18 464.58L565.16 464.63L565.04 464.98L565.03 465.03L564.91 465.38L564.89 465.43L564.78 465.77L564.76 465.81L564.65 466.15L564.63 466.2L564.51 466.55L564.5 466.6L564.38 466.95L564.37 466.98L564.25 467.33L564.23 467.37L564.12 467.73L564.1 467.78L563.97 468.1L563.95 468.15L563.84 468.49L563.82 468.54L563.7 468.87L563.69 468.91L563.57 469.27L563.56 469.31L563.42 469.66L563.41 469.71L563.27 470.04L563.26 470.09L563.12 470.42L563.11 470.47L562.97 470.8L562.96 470.85L562.83 471.19L562.81 471.23L562.68 471.56L562.66 471.61L562.53 471.95L562.51 471.98L562.37 472.31L562.35 472.36L562.2 472.7L562.18 472.75L562.05 473.09L562.03 473.13L561.89 473.47L561.87 473.51L561.72 473.84L561.7 473.89L561.56 474.23L561.54 474.26L561.39 474.59L561.37 474.64L561.22 474.97L561.21 475L561.06 475.34L561.04 475.37L560.9 475.7L560.88 475.73L560.73 476.06L560.71 476.1L560.54 476.42L560.53 476.46L560.37 476.77L560.35 476.82L560.2 477.16L560.18 477.19L560.02 477.5L560 477.55L559.85 477.88L559.83 477.91L559.67 478.25L559.65 478.29L559.49 478.63L559.47 478.66L559.3 478.98L559.29 479L559.12 479.34L559.11 479.39L558.94 479.72L558.92 479.77L558.76 480.1L558.73 480.15L558.56 480.46L558.54 480.49L558.38 480.83L558.36 480.88L558.19 481.2L558.18 481.25L558 481.57L557.96 481.6L557.78 481.92L557.77 481.95L557.59 482.26L557.57 482.3L557.38 482.61L557.37 482.65L557.19 482.96L557.17 482.99L556.99 483.31L556.97 483.35L556.79 483.67L556.77 483.7L556.59 484.02L556.57 484.06L556.4 484.38L556.36 484.42L556.18 484.73L556.14 484.76L555.96 485.08L555.95 485.11L555.76 485.42L555.75 485.47L555.55 485.79L555.53 485.82L555.35 486.12L555.33 486.17L555.15 486.47L555.12 486.5L554.92 486.81L554.91 486.86L554.71 487.16L554.67 487.19L554.48 487.49L554.46 487.53L554.26 487.84L554.23 487.89L554.03 488.19L553.99 488.22L553.8 488.52L553.78 488.55L553.58 488.86L553.56 488.9L553.37 489.2L553.33 489.23L553.12 489.52L553.1 489.56L552.9 489.86L552.89 489.89L552.67 490.19L552.66 490.22L552.45 490.52L552.43 490.55L552.22 490.85L552.19 490.88L551.98 491.18L551.94 491.21L551.75 491.51L551.73 491.54L551.51 491.84L551.48 491.89L551.28 492.19L551.25 492.22L551.04 492.52L551 492.55L550.79 492.85L550.75 492.89L550.54 493.18L550.51 493.21L550.29 493.51L550.27 493.55L550.06 493.83L550.02 493.86L549.81 494.14L549.79 494.17L549.56 494.45L549.53 494.49L549.31 494.77L549.3 494.8L549.08 495.1L549.05 495.13L548.82 495.43L548.78 495.47L548.55 495.75L548.52 495.78L548.29 496.06L548.27 496.09L548.04 496.37L548.01 496.41L547.78 496.69L547.74 496.72L547.51 497L547.48 497.03L547.25 497.32L547.21 497.35L546.98 497.63L546.97 497.67L546.73 497.95L546.7 497.98L546.45 498.26L546.42 498.29L546.19 498.57L546.16 498.61L545.92 498.89L545.89 498.92L545.66 499.2L545.63 499.23L545.39 499.52L545.36 499.55L545.13 499.81L545.09 499.85L544.85 500.13L544.81 500.16L544.58 500.44L544.55 500.48L544.3 500.76L544.27 500.79L544.04 501.07L544 501.1L543.76 501.37L543.72 501.4L543.47 501.67L543.44 501.7L543.19 501.96L543.16 502L542.91 502.26L542.88 502.3L542.63 502.56L542.6 502.6L542.35 502.86L542.32 502.89L542.07 503.15L542.04 503.19L541.79 503.45L541.76 503.49L541.49 503.75L541.46 503.79L541.21 504.05L541.18 504.08L540.93 504.33L540.89 504.37L540.63 504.63L540.58 504.66L540.31 504.93L540.28 504.96L540.02 505.2L539.99 505.24L539.72 505.5L539.69 505.54L539.42 505.78L539.39 505.82L539.12 506.07L539.09 506.1L538.83 506.35L538.8 506.38L538.53 506.63L538.5 506.66L538.23 506.91L538.2 506.95L537.93 507.19L537.9 507.23L537.62 507.47L537.58 507.49L537.32 507.74L537.29 507.77L537.01 508.02L536.98 508.05L536.69 508.3L536.66 508.32L536.38 508.57L536.34 508.6L536.06 508.83L536.02 508.86L535.73 509.09L535.7 509.13L535.42 509.38L535.38 509.41L535.11 509.66L535.07 509.69L534.79 509.94L534.76 509.97L534.48 510.2L534.44 510.24L534.15 510.47L534.11 510.48L533.83 510.71L533.8 510.75L533.52 510.98L533.47 511.01L533.19 511.24L533.15 511.28L532.87 511.51L532.84 511.54L532.56 511.77L532.52 511.81L532.23 512.04L532.19 512.07L531.91 512.29L531.88 512.32L531.58 512.55L531.55 512.58L531.25 512.82L531.22 512.85L530.92 513.08L530.89 513.12L530.59 513.35L530.56 513.36L530.26 513.58L530.22 513.59L529.93 513.81L529.9 513.82L529.6 514.04L529.55 514.06L529.25 514.27L529.22 514.31L528.92 514.52L528.89 514.55L528.59 514.77L528.55 514.8L528.26 515.02L528.21 515.05L527.91 515.26L527.87 515.28L527.56 515.5L527.51 515.51L527.2 515.73L527.17 515.76L526.85 515.98L526.82 516.01L526.5 516.21L526.47 516.24L526.16 516.45L526.12 516.49L525.82 516.7L525.78 516.74L525.46 516.93L525.43 516.95L525.12 517.15L525.07 517.17L524.75 517.36L524.72 517.4L524.4 517.6L524.37 517.63L524.05 517.83L524.02 517.84L523.71 518.04L523.66 518.06L523.35 518.26L523.31 518.29L523 518.49L522.95 518.51L522.63 518.7L522.58 518.74L522.27 518.93L522.22 518.97L521.89 519.16L521.86 519.2L521.54 519.38L521.49 519.4L521.18 519.58L521.15 519.61L520.81 519.81L520.77 519.84L520.43 520.03L520.4 520.06L520.09 520.24L520.04 520.26L519.7 520.44L519.66 520.46L519.32 520.64L519.29 520.65L518.98 520.84L518.96 520.86L327.2 627.71L327.18 627.71L326.89 627.89L326.84 627.91L326.52 628.09L326.47 628.12L326.16 628.29L326.11 628.31L325.79 628.47L325.76 628.49L325.45 628.66L325.4 628.67L325.08 628.83L325.04 628.85L324.72 629.02L324.67 629.03L324.36 629.2L324.32 629.21L324.01 629.38L323.97 629.4L323.66 629.54L323.63 629.56L323.29 629.73L323.27 629.76L322.95 629.93L322.92 629.94L322.6 630.09L322.57 630.11L322.25 630.26L322.22 630.28L321.91 630.44L321.87 630.45L321.54 630.6L321.51 630.62L321.2 630.77L321.16 630.79L320.83 630.93L320.8 630.95L320.48 631.1L320.45 631.12L320.14 631.26L320.09 631.3L319.76 631.45L319.73 631.47L319.39 631.6L319.36 631.61L319.03 631.76L319 631.8L318.66 631.94L318.62 631.96L318.3 632.09L318.27 632.11L317.94 632.26L317.9 632.28L317.57 632.41L317.54 632.42L317.21 632.56L317.18 632.57L316.85 632.71L316.8 632.72L316.46 632.86L316.42 632.87L316.08 633.01L316.04 633.02L315.72 633.15L315.69 633.17L315.36 633.29L315.32 633.3L314.99 633.44L314.95 633.45L314.61 633.58L314.56 633.6L314.23 633.73L314.18 633.75L313.85 633.86L313.8 633.88L313.47 634.01L313.42 634.03L313.09 634.14L313.06 634.16L312.73 634.28L312.68 634.29L312.35 634.41L312.3 634.42L311.96 634.54L311.92 634.56L311.58 634.67L311.55 634.69L311.22 634.81L310.89 634.92L310.84 634.94L310.49 635.04L310.44 635.06L310.11 635.15L310.08 635.17L309.75 635.29L309.72 635.3L309.37 635.4L309.32 635.42L308.99 635.51L308.94 635.53L308.61 635.63L308.56 635.65L308.21 635.77L308.14 635.78L307.48 635.98L307.4 636.02L306.73 636.21L306.64 636.23L305.96 636.43L305.88 636.45L305.2 636.63L305.12 636.66L304.44 636.84L304.36 636.86L303.68 637.04L303.58 637.06L302.9 637.22L302.82 637.24L302.14 637.41L302.04 637.42L301.37 637.58L301.28 637.6L300.61 637.75L300.52 637.77L299.82 637.92L299.73 637.93L299.03 638.08L298.95 638.1L298.25 638.23L298.17 638.25L297.49 638.36L297.41 638.38L296.73 638.51L296.65 638.53L295.96 638.64L295.87 638.66L295.18 638.77L295.09 638.79L294.4 638.89L294.32 638.91L293.62 639.01L293.54 639.03L292.84 639.12L292.76 639.14L292.07 639.24L291.97 639.26L291.27 639.34L291.19 639.35L290.5 639.44L290.41 639.45L289.72 639.54L289.02 639.6L288.94 639.6L288.25 639.65L288.16 639.67L287.47 639.72L287.38 639.72L286.69 639.77L286.61 639.77L285.91 639.82L285.82 639.84L285.12 639.88L285.04 639.88L284.34 639.92L284.26 639.92L283.56 639.95L283.47 639.95L282.77 639.97L282.69 639.97L281.99 639.99L281.91 639.99L281.21 640L278.77 640L278.07 639.99L277.38 639.97L277.28 639.97L276.58 639.95L276.57 639.95L275.88 639.92L275.79 639.9L275.1 639.87L275.02 639.87L274.32 639.84L274.24 639.82L273.54 639.79L273.46 639.79L272.76 639.74L272.68 639.72L271.99 639.65L271.89 639.64L271.19 639.57L271.1 639.56L270.4 639.49L270.32 639.47L269.62 639.41L269.54 639.41L268.84 639.34L268.76 639.32L268.07 639.24L267.97 639.24L267.28 639.16L267.17 639.14L266.48 639.04L266.4 639.03L265.7 638.93L265.62 638.91L264.93 638.81L264.84 638.79L264.14 638.7L264.06 638.68L263.39 638.56L263.34 638.56L262.64 638.43L262.55 638.41L261.88 638.28L261.79 638.26L261.12 638.13L261.03 638.11L260.35 637.98L260.26 637.96L259.57 637.83L259.48 637.81L258.81 637.67L258.71 637.64L258.03 637.49L257.94 637.47L257.27 637.3L257.17 637.27L256.49 637.11L256.41 637.07L255.74 636.89L255.65 636.87L254.98 636.69L254.89 636.66L254.21 636.48L254.13 636.45L253.45 636.26L253.37 636.23L252.69 636.04L252.59 636L251.92 635.8L251.83 635.77L251.16 635.57L251.07 635.53L250.39 635.34L250.31 635.32L249.65 635.1L249.58 635.09L249.24 634.97L249.19 634.97L248.86 634.87L248.81 634.86L248.48 634.74L248.43 634.72L248.1 634.61L248.05 634.59L247.72 634.48L247.67 634.46L247.34 634.34L247.29 634.33L246.96 634.21L246.93 634.19L246.6 634.08L246.56 634.06L246.23 633.95L246.2 633.93L245.87 633.8L245.82 633.78L245.48 633.65L245.43 633.63L245.11 633.5L245.07 633.48L244.74 633.35L244.69 633.33L244.36 633.2L244.33 633.18L244 633.05L243.95 633.03L243.62 632.9L243.58 632.89L243.25 632.76L243.22 632.74L242.89 632.61L242.84 632.59L242.51 632.46L242.46 632.44L242.13 632.31L242.08 632.29L241.75 632.16L241.7 632.14L241.36 632.01L241.33 631.99L241 631.85L240.95 631.83L240.64 631.68L240.61 631.67L240.28 631.52L240.24 631.5L239.91 631.35L239.88 631.33L239.55 631.2L239.5 631.18L239.18 631.04L239.14 631.02L238.8 630.87L238.75 630.85L238.44 630.71L238.41 630.67L238.09 630.53L238.06 630.51L237.75 630.36L237.71 630.34L237.38 630.19L237.35 630.16L237.02 629.99L236.98 629.96L236.67 629.81L236.62 629.79L236.29 629.65L236.26 629.62L235.94 629.45L235.89 629.43L235.56 629.26L235.53 629.25L235.21 629.08L235.17 629.07L234.85 628.9L234.82 628.89L234.5 628.72L234.46 628.68L234.14 628.52L234.1 628.51L233.79 628.34L233.76 628.32L233.44 628.16L233.4 628.12L233.08 627.96L233.05 627.94L232.73 627.76L232.69 627.73L232.37 627.56L232.32 627.55L232.01 627.38L231.96 627.36L231.64 627.2L231.59 627.18L231.28 627L231.23 626.98L230.93 626.8L230.88 626.78L230.58 626.6L230.57 626.59L57.22 525.41L57.2 525.39L56.83 525.17L56.8 525.15L56.44 524.94L56.39 524.92L56 524.71L55.96 524.69L55.59 524.46L55.56 524.45L55.2 524.21L55.17 524.18L54.8 523.95L54.77 523.91L54.4 523.68L54.36 523.67L53.99 523.45L53.94 523.42L53.58 523.19L53.54 523.15L53.18 522.92L53.27 522.92L52.9 522.69L52.85 522.66L52.49 522.42L52.45 522.4L52.09 522.16L52.04 522.13L51.68 521.88L51.63 521.85L51.27 521.6L51.23 521.57L50.87 521.33L50.83 521.3L50.47 521.05L50.44 521.02L50.08 520.77L50.04 520.74L49.7 520.49L49.65 520.46L49.29 520.21L49.26 520.18L48.91 519.93L48.87 519.9L48.52 519.65L48.48 519.61L48.13 519.37L48.09 519.35L47.75 519.1L47.71 519.07L47.38 518.82L47.34 518.79L47 518.54L46.95 518.52L46.6 518.28L46.57 518.24L46.22 517.98L46.19 517.94L45.84 517.7L45.79 517.66L45.45 517.4L45.4 517.36L45.07 517.1L45.04 517.07L44.71 516.8L44.68 516.79L44.35 516.52L44.32 516.49L43.98 516.22L43.95 516.19L43.62 515.93L43.59 515.89L43.26 515.63L43.22 515.59L42.89 515.33L42.86 515.3L42.53 515.03L42.49 515L42.17 514.72L42.13 514.7L41.8 514.44L41.77 514.4L41.45 514.14L41.41 514.1L41.08 513.82L41.05 513.79L40.72 513.53L40.69 513.5L40.36 513.21L40.32 513.2L40 512.93L39.97 512.9L39.65 512.63L39.62 512.6L39.3 512.32L39.27 512.29L38.95 512.01L38.92 511.97L38.61 511.69L38.58 511.66L38.26 511.38L38.23 511.34L37.91 511.06L37.88 511.03L37.56 510.73L37.54 510.71L37.22 510.43L37.17 510.4L36.87 510.11L36.83 510.07L36.52 509.79L36.48 509.76L36.18 509.46L36.14 509.43L35.84 509.13L35.81 509.09L35.51 508.8L35.48 508.76L35.17 508.47L35.13 508.43L34.82 508.13L34.79 508.12L34.49 507.82L34.45 507.79L34.16 507.49L34.13 507.46L33.83 507.16L33.79 507.12L33.49 506.83L33.46 506.8L33.17 506.5L33.13 506.46L32.83 506.16L32.8 506.14L32.52 505.84L32.49 505.8L32.19 505.5L32.16 505.47L31.86 505.16L31.82 505.12L31.55 504.81L31.51 504.78L31.23 504.46L31.2 504.43L30.9 504.11L30.87 504.08L30.59 503.77L30.55 503.73L30.27 503.42L30.24 503.39L29.96 503.07L29.92 503.04L29.64 502.73L29.61 502.69L29.33 502.38L29.31 502.34L29.05 502.03L29.01 502L28.73 501.68L28.7 501.65L28.4 501.32L28.37 501.29L28.09 500.97L28.05 500.94L27.77 500.61L27.74 500.57L27.47 500.26L27.46 500.23L27.19 499.91L27.16 499.88L26.9 499.55L26.86 499.52L26.58 499.19L26.55 499.15L26.28 498.84L26.25 498.8L25.97 498.49L25.94 498.46L25.67 498.14L25.64 498.11L25.38 497.78L25.34 497.75L25.08 497.41L25.04 497.38L24.78 497.05L24.74 497.02L24.48 496.69L24.45 496.65L24.18 496.32L24.17 496.29L23.92 495.96L23.89 495.93L23.64 495.6L23.62 495.56L23.37 495.23L23.34 495.2L23.09 494.85L23.06 494.82L22.81 494.49L22.78 494.45L22.53 494.13L22.51 494.09L22.26 493.74L22.25 493.71L22 493.36L21.99 493.33L21.73 493L21.72 492.97L21.47 492.63L21.44 492.6L21.19 492.25L21.16 492.22L20.91 491.87L20.88 491.82L20.64 491.48L20.61 491.44L20.38 491.1L20.35 491.06L20.11 490.72L20.08 490.69L19.85 490.33L19.83 490.31L19.6 489.96L19.57 489.91L19.34 489.56L19.3 489.52L19.07 489.18L19.04 489.15L18.81 488.8L18.77 488.77L18.54 488.42L18.51 488.39L18.3 488.04L18.28 488L18.06 487.66L18.03 487.61L17.8 487.26L17.76 487.21L17.53 486.86L17.52 486.83L17.29 486.47L17.27 486.42L17.06 486.07L17.02 486.04L16.8 485.69L16.77 485.66L16.56 485.29L16.53 485.25L16.31 484.89L16.29 484.86L16.08 484.5L16.06 484.46L15.84 484.12L15.81 484.07L15.6 483.7L15.57 483.65L15.35 483.29L15.32 483.24L15.12 482.88L15.09 482.84L14.87 482.48L14.86 482.45L14.65 482.08L14.64 482.05L14.44 481.69L14.42 481.64L14.23 481.27L14.19 481.22L14 480.86L13.98 480.81L13.78 480.43L13.76 480.39L13.57 480.03L13.55 479.98L13.35 479.62L13.33 479.57L13.13 479.21L13.11 479.16L12.94 478.77L12.92 478.74L12.72 478.36L12.7 478.31L12.51 477.93L12.47 477.9L12.29 477.51L12.28 477.48L12.09 477.12L12.07 477.07L11.89 476.69L11.89 476.71L11.71 476.32L11.68 476.27L11.49 475.9L11.48 475.85L11.3 475.48L11.28 475.43L11.1 475.05L11.08 475.02L10.9 474.64L10.89 474.61L10.72 474.22L10.7 474.19L10.52 473.81L10.51 473.78L10.32 473.39L10.3 473.37L10.12 472.98L10.11 472.94L9.94 472.55L9.93 472.52L9.74 472.14L9.72 472.09L9.55 471.71L9.53 471.68L9.36 471.3L9.35 471.26L9.18 470.89L9.16 470.84L9 470.45L8.98 470.42L8.84 470.04L8.82 470.01L8.65 469.63L8.63 469.58L8.49 469.18L8.47 469.15L8.31 468.76L8.29 468.72L8.14 468.35L8.12 468.31L7.96 467.91L7.94 467.87L7.79 467.48L7.78 467.43L7.63 467.03L7.61 467L7.46 466.6L7.44 466.55L7.3 466.15L7.28 466.12L7.13 465.73L7.11 465.69L6.98 465.29L6.97 465.24L6.82 464.85L6.8 464.81L6.67 464.42L6.65 464.37L6.52 463.97L6.5 463.92L6.35 463.53L6.33 463.48L6.2 463.08L6.19 463.04L6.05 462.65L6.04 462.61L5.9 462.22L5.89 462.17L5.75 461.77L5.74 461.72L5.61 461.32L5.59 461.27L5.46 460.88L5.44 460.83L5.31 460.43L5.3 460.38L5.18 459.99L5.16 459.95L5.03 459.54L5.01 459.49L4.9 459.07L4.88 459.03L4.77 458.63L4.75 458.58L4.64 458.18L4.62 458.13L4.5 457.72L4.49 457.67L4.37 457.26L4.35 457.22L4.23 456.81L4.22 456.79L4.1 456.38L4.09 456.35L3.99 455.95L3.97 455.91L3.87 455.52L3.87 455.48L3.76 455.07L3.76 455.02L3.66 454.63L3.64 454.58L3.55 454.18L3.53 454.13L3.43 453.71L3.44 453.71L3.35 453.3L3.33 453.27L3.23 452.86L3.21 452.82L3.12 452.41L3.1 452.38L3 451.96L3.01 451.94L2.91 451.53L2.89 451.49L2.8 451.07L2.78 451.02L2.7 450.61L2.68 450.56L2.59 450.15L2.57 450.11L2.48 449.7L2.46 449.65L2.38 449.23L2.37 449.19L2.29 448.77L2.2 448.36L2.2 448.31L2.12 447.87L2.12 447.83L2.04 447.42L2.02 447.37L1.92 446.97L1.92 446.92L1.84 446.47L1.82 446.42L1.74 445.99L1.72 445.94L1.65 445.53L1.64 445.48L1.57 445.07L1.57 445.02L1.5 444.6L1.5 444.56L1.44 444.14L1.42 444.09L1.36 443.68L1.36 443.69L1.29 443.28L1.29 443.25L1.23 442.83L1.23 442.78L1.16 442.37L1.16 442.32L1.09 441.91L1.09 441.87L1.05 441.44L1.05 441.39L1 440.98L1 440.95L0.93 440.51L0.91 440.46L0.86 440.05L0.86 440.01L0.82 439.57L0.8 439.52L0.75 439.09L0.75 439.04L0.7 438.61L0.68 438.56L0.63 438.13L0.63 438.08L0.58 437.65L0.56 437.62L0.52 437.19L0.48 436.76L0.48 436.71L0.43 436.28L0.41 436.23L0.37 435.8L0.37 435.75L0.33 435.32L0.32 435.27L0.28 434.84L0.28 434.79L0.25 434.36L0.25 434.31L0.22 433.88L0.18 433.45L0.18 433.4L0.15 432.97L0.15 432.92L0.12 432.49L0.12 431.96L0.1 431.53L0.1 431.48L0.08 431.05L0.08 431L0.07 430.57L0.05 430.52L0.03 430.09L0.03 429.63L0.02 429.2L0.02 429.15L0 428.72L0 219.31L0.02 218.9L0.02 218.37L0.03 217.94L0.03 216.42L0.05 215.98L0.05 215.95L0.07 215.52L0.07 215.47L0.08 215.04L0.08 214.99L0.1 214.56L0.1 214.53L0.12 214.1L0.12 214.05L0.14 213.62L0.14 213.57L0.17 213.13L0.17 213.08L0.2 212.65L0.2 212.61L0.22 212.18L0.22 212.13L0.25 211.7L0.25 211.65L0.27 211.22L0.27 211.17L0.28 210.74L0.28 210.69L0.32 210.26L0.32 210.21L0.35 209.78L0.35 209.73L0.4 209.3L0.4 209.25L0.43 208.82L0.45 208.79L0.48 208.36L0.48 208.33L0.53 207.89L0.53 207.87L0.58 207.43L0.6 207.38L0.65 206.95L0.65 206.91L0.69 206.48L0.69 206.44L0.74 206.01L0.74 205.98L0.8 205.55L0.81 205.5L0.86 205.07L0.86 205.02L0.91 204.6L0.91 204.56L0.96 204.13L0.96 204.08L1.01 203.64L1.03 203.6L1.08 203.19L1.08 203.14L1.14 202.7L1.14 202.66L1.19 202.22L1.21 202.17L1.26 201.76L1.27 201.72L1.34 201.28L1.36 201.25L1.42 200.82L1.42 200.78L1.49 200.36L1.49 200.32L1.56 199.91L1.57 199.86L1.64 199.44L1.64 199.4L1.76 198.97L1.77 198.92L1.84 198.5L1.84 198.45L1.92 198.04L1.92 198.01L2 197.59L2 197.56L2.08 197.13L2.1 197.1L2.19 196.68L2.2 196.65L2.29 196.24L2.3 196.19L2.38 195.77L2.4 195.72L2.48 195.31L2.48 195.26L2.57 194.85L2.57 194.81L2.65 194.4L2.66 194.37L2.75 193.95L2.76 193.92L2.86 193.51L2.86 193.46L2.96 193.04L2.98 192.99L3.06 192.58L3.08 192.53L3.17 192.12L3.17 192.07L3.28 191.65L3.29 191.61L3.39 191.19L3.39 191.14L3.49 190.73L3.51 190.69L3.6 190.28L3.6 190.25L3.71 189.84L3.72 189.79L3.84 189.37L3.84 189.34L3.96 188.92L3.96 188.89L4.07 188.48L4.09 188.43L4.2 188.02L4.2 187.97L4.32 187.55L4.34 187.51L4.45 187.11L4.47 187.07L4.58 186.66L4.6 186.62L4.72 186.2L4.73 186.15L4.85 185.75L4.87 185.72L5 185.31L5.01 185.27L5.13 184.88L5.15 184.84L5.26 184.44L5.28 184.41L5.39 183.99L5.41 183.95L5.54 183.55L5.56 183.5L5.69 183.1L5.69 183.06L5.82 182.67L5.82 182.62L5.96 182.22L5.97 182.19L6.11 181.79L6.12 181.74L6.26 181.34L6.27 181.29L6.41 180.9L6.42 180.85L6.55 180.45L6.57 180.42L6.71 180.02L6.73 179.99L6.87 179.59L6.88 179.55L7.01 179.15L7.03 179.12L7.18 178.72L7.2 178.69L7.35 178.29L7.35 178.26L7.49 177.86L7.51 177.83L7.66 177.43L7.68 177.38L7.82 176.99L7.84 176.95L7.99 176.56L8.01 176.51L8.17 176.12L8.19 176.09L8.35 175.69L8.37 175.66L8.54 175.26L8.55 175.22L8.72 174.82L8.74 174.77L8.9 174.37L8.92 174.32L9.08 173.92L9.1 173.87L9.27 173.48L9.28 173.43L9.44 173.03L9.46 172.99L9.63 172.61L9.65 172.56L9.81 172.18L9.83 172.13L9.99 171.73L10.01 171.7L10.19 171.3L10.21 171.27L10.39 170.89L10.4 170.86L10.57 170.47L10.59 170.43L10.77 170.04L10.79 170.01L10.97 169.63L10.98 169.6L11.17 169.22L11.19 169.19L11.36 168.81L11.38 168.76L11.56 168.37L11.58 168.34L11.76 167.96L11.78 167.91L11.96 167.53L11.98 167.5L12.16 167.12L12.17 167.08L12.36 166.7L12.37 166.67L12.56 166.29L12.57 166.26L12.77 165.89L12.79 165.86L12.98 165.48L13.02 165.43L13.22 165.05L13.24 165.02L13.43 164.63L13.45 164.58L13.65 164.22L13.66 164.19L13.86 163.83L13.88 163.79L14.07 163.43L14.09 163.38L14.29 163.02L14.33 162.98L14.52 162.62L14.54 162.57L14.74 162.21L14.77 162.17L14.97 161.81L14.99 161.78L15.18 161.41L15.22 161.36L15.43 161L15.45 160.96L15.65 160.6L15.67 160.57L15.88 160.2L15.9 160.17L16.12 159.8L16.13 159.78L16.35 159.41L16.38 159.38L16.59 159.01L16.61 158.98L16.82 158.62L16.86 158.58L17.07 158.22L17.09 158.18L17.3 157.82L17.34 157.79L17.55 157.43L17.57 157.39L17.8 157.03L17.83 156.98L18.06 156.62L18.08 156.58L18.3 156.24L18.33 156.2L18.56 155.85L18.59 155.82L18.81 155.46L18.83 155.42L19.06 155.08L19.07 155.04L19.3 154.7L19.34 154.66L19.57 154.3L19.6 154.27L19.83 153.92L19.85 153.87L20.08 153.52L20.1 153.49L20.33 153.14L20.35 153.11L20.6 152.76L20.63 152.73L20.86 152.38L20.9 152.35L21.14 152L21.16 151.97L21.41 151.62L21.42 151.59L21.67 151.24L21.69 151.2L21.94 150.86L21.97 150.82L22.21 150.48L22.23 150.44L22.48 150.1L22.52 150.07L22.76 149.73L22.78 149.7L23.03 149.35L23.06 149.32L23.31 148.99L23.34 148.96L23.59 148.62L23.62 148.59L23.87 148.26L23.9 148.23L24.15 147.9L24.17 147.86L24.42 147.53L24.45 147.5L24.72 147.17L24.75 147.14L25.01 146.81L25.04 146.77L25.31 146.44L25.34 146.41L25.61 146.08L25.64 146.04L25.91 145.72L25.94 145.67L26.2 145.33L26.22 145.3L26.49 144.97L26.52 144.93L26.78 144.61L26.81 144.57L27.08 144.26L27.11 144.23L27.38 143.89L27.41 143.86L27.68 143.53L27.71 143.5L27.99 143.18L28.02 143.15L28.29 142.82L28.32 142.79L28.58 142.47L28.62 142.44L28.88 142.11L28.92 142.07L29.2 141.75L29.22 141.71L29.5 141.4L29.53 141.36L29.81 141.05L29.84 141.02L30.12 140.7L30.16 140.67L30.44 140.36L30.46 140.32L30.73 140.01L30.77 139.98L31.05 139.66L31.08 139.63L31.36 139.31L31.38 139.28L31.66 138.96L31.69 138.93L31.99 138.62L32.01 138.59L32.31 138.27L32.34 138.24L32.65 137.94L32.69 137.91L32.98 137.59L33.02 137.56L33.32 137.25L33.35 137.21L33.65 136.91L33.68 136.88L33.98 136.58L34.01 136.55L34.31 136.25L34.34 136.22L34.66 135.92L34.69 135.89L34.98 135.59L35.02 135.56L35.32 135.26L35.35 135.22L35.65 134.93L35.68 134.9L35.98 134.6L36.01 134.56L36.31 134.27L36.34 134.24L36.64 133.94L36.67 133.9L36.97 133.6L37.01 133.57L37.32 133.29L37.35 133.26L37.67 132.98L37.7 132.94L38.01 132.64L38.05 132.62L38.36 132.32L38.39 132.3L38.71 132.02L38.74 132L39.06 131.72L39.09 131.69L39.4 131.4L39.44 131.37L39.75 131.09L39.78 131.06L40.1 130.78L40.13 130.76L40.46 130.48L40.49 130.44L40.83 130.16L40.86 130.13L41.19 129.85L41.22 129.82L41.55 129.55L41.59 129.52L41.92 129.25L41.95 129.22L42.26 128.96L42.3 128.93L42.63 128.66L42.66 128.63L42.99 128.36L43.02 128.35L43.36 128.08L43.39 128.05L43.72 127.78L43.75 127.75L44.09 127.48L44.11 127.45L44.46 127.19L44.5 127.15L44.83 126.89L44.86 126.86L45.21 126.59L45.24 126.56L45.59 126.3L45.62 126.26L45.95 126L45.99 125.98L46.33 125.72L46.37 125.68L46.7 125.42L46.73 125.38L47.08 125.14L47.11 125.1L47.46 124.84L47.49 124.81L47.84 124.56L47.87 124.54L48.22 124.29L48.27 124.26L48.62 124.01L48.65 124L49 123.74L49.03 123.72L49.38 123.45L49.41 123.43L49.77 123.19L49.81 123.15L50.15 122.91L50.2 122.89L50.55 122.64L50.58 122.62L50.93 122.37L50.96 122.36L51.33 122.11L51.36 122.08L51.71 121.83L51.74 121.81L52.11 121.58L52.14 121.56L52.49 121.31L52.54 121.28L52.9 121.05L52.93 121.02L53.3 120.77L53.33 120.73L53.69 120.5L53.74 120.49L54.11 120.26L54.14 120.22L54.5 119.99L54.54 119.98L54.9 119.75L54.93 119.73L55.3 119.5L55.33 119.48L55.7 119.25L55.74 119.23L56.11 119.02L56.13 119.02L222.38 16.46L222.4 16.44L222.75 16.23L222.78 16.21L223.14 15.98L223.19 15.94L223.56 15.73L223.6 15.7L223.97 15.48L224.02 15.45L224.38 15.23L224.43 15.22L224.81 15L224.84 14.97L225.21 14.75L225.26 14.74L225.63 14.52L225.65 14.5L226.04 14.31L226.07 14.27L226.45 14.07L226.48 14.04L226.85 13.84L226.89 13.83L227.28 13.63L227.31 13.6L227.67 13.39L227.72 13.36L228.08 13.17L228.13 13.13L228.5 12.94L228.53 12.9L228.91 12.7L228.95 12.69L229.31 12.49L229.36 12.47L229.72 12.28L229.77 12.26L230.16 12.06L230.21 12.04L230.58 11.84L230.62 11.83L231 11.64L231.05 11.62L231.43 11.45L231.48 11.43L231.84 11.25L231.89 11.23L232.28 11.05L232.31 11.03L232.69 10.85L232.73 10.83L233.12 10.65L233.16 10.62L233.55 10.44L233.6 10.42L233.97 10.24L234.02 10.22L234.41 10.06L234.46 10.04L234.84 9.87L234.87 9.84L235.25 9.68L235.28 9.66L235.67 9.49L235.72 9.46L236.09 9.29L236.14 9.28L236.53 9.11L236.57 9.1L236.96 8.93L237 8.91L237.38 8.75L237.43 8.73L237.81 8.57L237.86 8.55L238.25 8.4L238.3 8.38L238.67 8.22L238.72 8.2L239.12 8.04L239.17 8.02L239.56 7.86L239.61 7.82L240 7.67L240.03 7.65L240.43 7.51L240.48 7.49L240.86 7.35L240.89 7.33L241.29 7.18L241.33 7.16L241.74 7.03L241.78 7.01L242.18 6.86L242.23 6.84L242.63 6.7L242.68 6.68L243.07 6.55L243.12 6.53L243.52 6.4L243.57 6.38L243.95 6.25L244 6.23L244.4 6.1L244.45 6.09L244.83 5.95L244.88 5.94L245.28 5.8L245.3 5.79L245.7 5.65L245.75 5.64L246.15 5.51L246.2 5.49L246.6 5.36L246.65 5.34L247.04 5.22L247.07 5.21L247.48 5.09L247.52 5.07L247.92 4.96L247.97 4.96L248.37 4.84L248.42 4.83L248.81 4.71L248.84 4.7L249.25 4.58L249.27 4.56L249.67 4.45L249.72 4.43L250.12 4.32L250.17 4.3L250.57 4.18L250.62 4.17L251.02 4.07L251.06 4.05L251.46 3.96L251.49 3.94L251.89 3.82L251.93 3.8L252.34 3.7L252.38 3.7L252.77 3.59L252.82 3.59L253.23 3.49L253.28 3.47L253.69 3.38L253.74 3.36L254.14 3.26L254.19 3.26L254.6 3.16L254.65 3.16L255.05 3.06L255.1 3.04L255.5 2.96L255.54 2.94L255.95 2.85L255.99 2.83L256.39 2.74L256.44 2.74L256.84 2.66L256.89 2.64L257.29 2.56L257.31 2.56L257.72 2.48L257.76 2.46L258.18 2.38L258.21 2.38L258.62 2.3L258.66 2.28L259.07 2.2L259.12 2.18L259.53 2.1L259.58 2.08L260 2.02L260.04 2.02L260.45 1.95L260.49 1.93L260.91 1.85L260.96 1.83L261.37 1.77L261.42 1.77L261.82 1.7L261.86 1.68L262.28 1.62L262.33 1.6L262.73 1.54L262.76 1.54L263.16 1.47L263.2 1.47L263.62 1.4L263.67 1.39L264.08 1.32L264.13 1.32L264.55 1.25L264.59 1.25L265.01 1.19L265.06 1.19L265.47 1.14L265.52 1.14L265.92 1.09L265.97 1.09L266.38 1.04L266.43 1.02L266.85 0.97L266.88 0.96L267.29 0.93L267.34 0.93L267.74 0.88L267.79 0.88L268.19 0.83L268.24 0.83L268.65 0.77L268.69 0.77L269.11 0.72L269.16 0.72L269.55 0.69L269.6 0.69L270.01 0.64L270.06 0.62L270.48 0.59L270.53 0.57L270.94 0.54L270.99 0.54L271.4 0.51L271.45 0.51L271.86 0.47L271.91 0.47L272.33 0.46L272.37 0.44L272.79 0.41L272.82 0.39L273.24 0.37L273.29 0.37L273.7 0.34L273.73 0.34L274.14 0.32L274.19 0.32L274.61 0.31L274.66 0.31L275.07 0.29L275.12 0.29L275.54 0.28L275.59 0.26L276.01 0.25L276.05 0.25L276.47 0.23L276.52 0.23L276.93 0.21L276.98 0.21L277.39 0.2L277.44 0.2L277.86 0.18L277.89 0.18L278.31 0.16L278.82 0.16L279.23 0.14L280.19 0.14L280.28 0L280.73 0ZM279.08 44.66L278.8 44.67L278.52 44.68L278.24 44.69L277.96 44.7L277.67 44.72L277.39 44.74L277.13 44.76L276.85 44.77L276.58 44.79L276.32 44.8L276.05 44.82L275.77 44.84L275.51 44.85L275.23 44.89L274.94 44.92L274.68 44.95L274.4 44.99L274.12 45.02L273.84 45.05L273.57 45.08L273.29 45.12L273.03 45.15L272.76 45.19L272.48 45.22L272.22 45.25L271.95 45.28L271.69 45.32L271.42 45.35L271.14 45.38L270.88 45.43L270.61 45.47L270.33 45.51L270.07 45.56L269.8 45.62L269.54 45.66L269.27 45.71L269.01 45.76L268.74 45.81L268.48 45.85L268.2 45.89L267.93 45.94L267.65 45.99L267.39 46.04L267.12 46.09L266.86 46.14L266.6 46.21L266.33 46.28L266.06 46.34L265.8 46.39L265.53 46.44L265.27 46.51L265 46.57L264.74 46.64L264.48 46.71L264.21 46.77L263.95 46.84L263.68 46.91L263.42 46.97L263.15 47.04L262.89 47.11L262.63 47.19L262.36 47.26L262.09 47.34L261.84 47.42L261.58 47.5L261.32 47.58L261.05 47.67L260.79 47.75L260.52 47.83L260.28 47.92L260.01 48L259.75 48.09L259.48 48.18L259.22 48.26L258.95 48.36L258.68 48.44L258.42 48.53L258.17 48.61L257.91 48.71L257.64 48.8L257.38 48.9L257.13 49.01L256.87 49.1L256.62 49.2L256.37 49.3L256.1 49.42L255.84 49.52L255.58 49.61L255.31 49.71L255.06 49.84L254.82 49.93L254.55 50.05L254.31 50.16L254.05 50.28L253.81 50.4L253.54 50.51L253.29 50.63L253.03 50.74L252.78 50.86L252.53 50.97L252.28 51.09L252.02 51.21L251.77 51.32L251.53 51.44L251.28 51.57L251.03 51.7L250.78 51.82L250.53 51.95L250.28 52.06L250.04 52.2L249.79 52.33L249.54 52.46L249.29 52.59L249.04 52.73L248.8 52.87L248.57 53.01L248.31 53.14L248.08 53.27L247.84 53.42L247.59 53.57L247.34 53.72L247.11 53.85L246.86 54L246.63 54.15L246.38 54.3L246.13 54.45L245.87 54.62L79.8 156.97L79.51 157.15L79.25 157.32L79 157.48L78.75 157.65L78.51 157.81L78.26 157.98L78.01 158.15L77.76 158.31L77.51 158.47L77.26 158.64L77.02 158.81L76.77 158.97L76.52 159.15L76.29 159.32L76.06 159.49L75.81 159.65L75.58 159.81L75.35 159.98L75.12 160.15L74.88 160.31L74.65 160.48L74.42 160.64L74.19 160.82L73.96 160.99L73.73 161.17L73.49 161.35L73.26 161.54L73.03 161.72L72.8 161.9L72.57 162.08L72.35 162.26L72.12 162.44L71.89 162.63L71.67 162.81L71.44 162.99L71.21 163.17L71 163.35L70.76 163.54L70.55 163.72L70.34 163.9L70.12 164.1L69.9 164.3L69.69 164.48L69.47 164.66L69.26 164.86L69.04 165.06L68.83 165.26L68.61 165.46L68.4 165.65L68.18 165.85L67.97 166.05L67.75 166.25L67.54 166.45L67.32 166.64L67.11 166.85L66.91 167.04L66.69 167.24L66.5 167.46L66.28 167.65L66.09 167.87L65.88 168.07L65.69 168.28L65.49 168.48L65.29 168.7L65.09 168.91L64.87 169.13L64.68 169.33L64.48 169.54L64.28 169.76L64.08 169.97L63.9 170.18L63.7 170.4L63.51 170.62L63.3 170.83L63.1 171.06L62.91 171.28L62.72 171.49L62.54 171.71L62.35 171.94L62.16 172.15L61.97 172.37L61.78 172.6L61.6 172.82L61.42 173.05L61.23 173.28L61.05 173.51L60.87 173.74L60.69 173.98L60.51 174.21L60.34 174.44L60.16 174.67L59.98 174.9L59.8 175.13L59.61 175.36L59.45 175.6L59.28 175.83L59.12 176.06L58.95 176.31L58.79 176.54L58.62 176.77L58.45 177.02L58.29 177.25L58.13 177.48L57.96 177.71L57.79 177.95L57.65 178.19L57.48 178.44L57.32 178.67L57.15 178.92L57 179.17L56.85 179.4L56.7 179.65L56.55 179.89L56.41 180.15L56.26 180.39L56.09 180.64L55.93 180.89L55.78 181.14L55.63 181.38L55.48 181.63L55.33 181.88L55.18 182.13L55.04 182.38L54.89 182.62L54.74 182.88L54.59 183.12L54.44 183.37L54.29 183.63L54.14 183.88L53.99 184.13L53.84 184.39L53.71 184.65L53.58 184.91L53.44 185.17L53.31 185.44L53.18 185.69L53.05 185.93L52.91 186.2L52.78 186.44L52.65 186.71L52.54 186.96L52.4 187.23L52.27 187.49L52.14 187.75L52.01 188.02L51.87 188.28L51.76 188.55L51.64 188.81L51.52 189.08L51.41 189.34L51.29 189.6L51.18 189.87L51.06 190.13L50.94 190.4L50.83 190.66L50.73 190.93L50.62 191.2L50.5 191.48L50.39 191.74L50.27 192.01L50.15 192.27L50.06 192.53L49.94 192.82L49.82 193.08L49.72 193.34L49.62 193.63L49.53 193.89L49.43 194.17L49.33 194.44L49.23 194.72L49.13 195L49.03 195.28L48.94 195.56L48.85 195.83L48.75 196.11L48.66 196.39L48.58 196.65L48.5 196.94L48.4 197.22L48.32 197.48L48.23 197.75L48.15 198.03L48.06 198.31L47.97 198.59L47.89 198.85L47.8 199.13L47.72 199.41L47.64 199.69L47.55 199.98L47.47 200.26L47.4 200.54L47.34 200.82L47.26 201.1L47.19 201.38L47.11 201.66L47.04 201.95L46.98 202.23L46.91 202.53L46.85 202.81L46.78 203.09L46.71 203.37L46.65 203.65L46.58 203.93L46.51 204.21L46.46 204.49L46.4 204.77L46.35 205.05L46.3 205.35L46.25 205.65L46.2 205.95L46.15 206.24L46.1 206.53L46.05 206.81L46 207.11L45.95 207.4L45.9 207.69L45.86 207.97L45.8 208.25L45.75 208.55L45.72 208.84L45.69 209.14L45.65 209.42L45.61 209.72L45.56 210L45.52 210.3L45.49 210.6L45.46 210.89L45.42 211.19L45.39 211.49L45.35 211.79L45.32 212.07L45.29 212.37L45.26 212.66L45.24 212.96L45.21 213.26L45.18 213.56L45.16 213.86L45.14 214.15L45.12 214.45L45.11 214.75L45.09 215.05L45.07 215.34L45.06 215.64L45.04 215.94L45.03 216.24L45.01 216.53L45.01 216.83L44.99 217.13L44.97 217.43L44.97 217.72L44.96 218.02L44.96 427.76L44.97 428.06L44.97 428.96L44.99 429.24L45.01 429.53L45.03 429.83L45.04 430.13L45.06 430.43L45.07 430.73L45.09 431.03L45.11 431.32L45.12 431.62L45.16 431.92L45.18 432.21L45.19 432.51L45.21 432.81L45.24 433.09L45.27 433.39L45.31 433.67L45.32 433.97L45.35 434.25L45.39 434.53L45.42 434.81L45.46 435.09L45.49 435.39L45.52 435.67L45.55 435.95L45.59 436.25L45.62 436.55L45.65 436.83L45.69 437.13L45.74 437.41L45.78 437.69L45.83 437.97L45.89 438.25L45.93 438.55L45.98 438.83L46.03 439.11L46.08 439.39L46.13 439.67L46.2 439.95L46.25 440.24L46.3 440.52L46.35 440.8L46.42 441.08L46.48 441.36L46.53 441.64L46.59 441.93L46.66 442.21L46.73 442.49L46.8 442.77L46.86 443.05L46.93 443.33L46.99 443.61L47.06 443.88L47.14 444.14L47.21 444.42L47.27 444.7L47.34 444.98L47.42 445.26L47.49 445.53L47.55 445.81L47.62 446.07L47.7 446.36L47.77 446.62L47.85 446.9L47.94 447.18L48.02 447.45L48.1 447.73L48.19 448.01L48.27 448.27L48.35 448.56L48.45 448.82L48.55 449.08L48.64 449.35L48.75 449.61L48.83 449.88L48.93 450.16L49.03 450.43L49.13 450.69L49.22 450.96L49.32 451.22L49.42 451.49L49.52 451.75L49.62 452.01L49.72 452.28L49.82 452.54L49.94 452.81L50.05 453.07L50.15 453.34L50.25 453.6L50.35 453.86L50.45 454.13L50.55 454.39L50.67 454.66L50.78 454.93L50.9 455.19L51.01 455.46L51.13 455.72L51.24 455.98L51.36 456.25L51.48 456.51L51.59 456.78L51.71 457.04L51.82 457.31L51.94 457.55L52.07 457.82L52.2 458.07L52.33 458.33L52.47 458.58L52.6 458.83L52.73 459.08L52.86 459.32L53 459.58L53.13 459.82L53.27 460.07L53.41 460.32L53.54 460.56L53.67 460.81L53.82 461.06L53.97 461.31L54.1 461.56L54.24 461.81L54.37 462.05L54.52 462.3L54.65 462.55L54.8 462.78L54.95 463.03L55.1 463.26L55.25 463.51L55.39 463.76L55.55 463.99L55.69 464.22L55.84 464.45L55.99 464.68L56.14 464.93L56.29 465.18L56.45 465.41L56.6 465.64L56.75 465.89L56.9 466.13L57.05 466.36L57.22 466.59L57.38 466.82L57.55 467.07L57.71 467.3L57.88 467.53L58.05 467.76L58.21 467.99L58.37 468.22L58.54 468.46L58.71 468.69L58.88 468.92L59.07 469.15L59.23 469.38L59.4 469.61L59.56 469.84L59.73 470.08L59.91 470.29L60.09 470.51L60.28 470.74L60.46 470.95L60.64 471.19L60.82 471.4L61 471.61L61.19 471.83L61.37 472.04L61.55 472.26L61.73 472.47L61.91 472.69L62.1 472.91L62.28 473.12L62.46 473.34L62.64 473.55L62.84 473.77L63.04 473.98L63.22 474.2L63.42 474.39L63.62 474.61L63.81 474.81L64.02 475.02L64.19 475.24L64.39 475.45L64.6 475.65L64.79 475.85L64.99 476.05L65.19 476.24L65.39 476.46L65.58 476.66L65.78 476.86L65.98 477.06L66.18 477.26L66.38 477.45L66.6 477.65L66.79 477.85L66.99 478.05L67.2 478.25L67.41 478.44L67.6 478.65L67.82 478.84L68.03 479.03L68.25 479.21L68.46 479.4L68.68 479.61L68.89 479.79L69.11 479.97L69.32 480.17L69.54 480.36L69.76 480.55L69.99 480.73L70.22 480.91L70.45 481.09L70.66 481.28L70.88 481.46L71.11 481.64L71.32 481.82L71.56 481.98L71.77 482.17L72 482.35L72.24 482.53L72.47 482.71L72.68 482.88L72.92 483.06L73.15 483.23L73.38 483.41L73.61 483.59L73.84 483.76L74.07 483.92L74.32 484.09L74.55 484.25L74.78 484.42L75.01 484.58L75.25 484.75L75.48 484.91L75.71 485.08L75.96 485.25L76.21 485.39L76.45 485.56L76.68 485.72L76.93 485.89L77.18 486.06L77.41 486.2L77.66 486.35L77.91 486.5L78.16 486.65L78.4 486.8L78.66 486.95L78.92 487.1L79.17 487.24L79.41 487.4L79.7 487.56L252.85 588.79L253.06 588.92L253.24 589.02L253.44 589.12L253.64 589.22L253.84 589.32L254.02 589.44L254.22 589.53L254.42 589.63L254.61 589.74L254.82 589.85L255.01 589.95L255.21 590.05L255.41 590.15L255.61 590.25L255.81 590.34L256.01 590.45L256.21 590.55L256.4 590.64L256.59 590.74L256.78 590.84L256.98 590.94L257.18 591.03L257.38 591.12L257.58 591.21L257.77 591.29L257.98 591.38L258.17 591.47L258.37 591.57L258.57 591.65L258.77 591.75L258.96 591.84L259.17 591.92L259.36 592L259.56 592.08L259.76 592.17L259.96 592.25L260.16 592.33L260.35 592.42L260.56 592.5L260.75 592.56L260.97 592.65L261.16 592.73L261.37 592.81L261.56 592.89L261.76 592.98L261.96 593.04L262.16 593.13L262.36 593.19L262.56 593.26L262.77 593.32L262.97 593.39L263.15 593.46L263.59 593.59L264 593.72L264.41 593.84L264.82 593.96L265.23 594.07L265.65 594.19L266.06 594.3L266.48 594.42L266.89 594.53L267.3 594.63L267.72 594.73L268.13 594.83L268.54 594.91L268.96 595.01L269.37 595.09L269.78 595.18L270.2 595.26L270.61 595.33L271.03 595.41L271.44 595.48L271.85 595.54L272.29 595.61L272.7 595.67L273.13 595.72L273.56 595.77L273.99 595.82L274.42 595.86L274.83 595.89L275.26 595.92L275.67 595.95L276.11 595.99L276.54 596.02L276.95 596.05L277.36 596.07L277.78 596.09L278.21 596.1L280.32 596.1L280.76 596.09L281.18 596.09L281.62 596.07L282.04 596.05L282.47 596.02L282.9 595.99L283.34 595.97L283.76 595.94L284.2 595.9L284.63 595.87L285.04 595.84L285.47 595.79L285.9 595.74L286.31 595.69L286.74 595.64L287.15 595.58L287.59 595.51L288 595.44L288.43 595.37L288.84 595.31L289.26 595.23L289.67 595.16L290.1 595.08L290.51 595L290.92 594.9L291.34 594.81L291.75 594.72L292.16 594.62L292.58 594.52L292.99 594.42L293.41 594.3L293.82 594.19L294.23 594.07L294.65 593.96L295.08 593.82L295.28 593.75L295.47 593.69L295.67 593.62L295.89 593.56L296.09 593.49L296.3 593.43L296.5 593.36L296.7 593.29L296.92 593.23L297.11 593.16L297.31 593.09L297.52 593.01L297.73 592.94L297.94 592.88L298.14 592.79L298.34 592.73L298.53 592.66L298.73 592.6L298.95 592.51L299.15 592.45L299.34 592.36L299.54 592.28L299.74 592.2L299.94 592.12L300.14 592.04L300.33 591.95L300.54 591.87L300.73 591.79L300.93 591.7L301.13 591.62L301.33 591.52L301.53 591.42L301.73 591.34L301.92 591.24L302.12 591.14L302.32 591.06L302.52 590.96L302.72 590.86L302.92 590.76L303.1 590.67L303.3 590.56L303.49 590.46L303.7 590.37L303.89 590.27L304.09 590.17L304.29 590.07L304.49 589.97L304.69 589.87L304.87 589.77L305.07 589.67L305.26 589.57L305.48 589.46L497.31 482.55L497.54 482.43L497.76 482.32L497.95 482.2L498.15 482.09L498.35 481.97L498.55 481.84L498.77 481.72L498.96 481.6L499.16 481.49L499.36 481.37L499.56 481.24L499.76 481.11L499.95 481L500.15 480.88L500.35 480.76L500.55 480.63L500.75 480.5L500.95 480.38L501.15 480.25L501.34 480.13L501.52 480L501.71 479.87L501.89 479.74L502.07 479.61L502.25 479.47L502.46 479.34L502.63 479.21L502.83 479.08L503.01 478.94L503.2 478.81L503.38 478.68L503.56 478.55L503.74 478.42L503.94 478.28L504.12 478.14L504.31 478L504.49 477.85L504.67 477.72L504.85 477.57L505.04 477.42L505.21 477.27L505.4 477.14L505.58 477.01L505.76 476.86L505.93 476.71L506.11 476.56L506.29 476.41L506.45 476.28L506.64 476.13L506.82 475.97L506.98 475.82L507.17 475.67L507.33 475.52L507.5 475.37L507.66 475.2L507.85 475.06L508.01 474.89L508.18 474.74L508.34 474.58L508.51 474.41L508.67 474.26L508.84 474.1L509.01 473.95L509.17 473.78L509.33 473.62L509.5 473.45L509.67 473.29L509.81 473.12L509.98 472.96L510.12 472.79L510.29 472.62L510.46 472.46L510.63 472.29L510.77 472.13L510.92 471.96L511.07 471.8L511.22 471.63L511.38 471.46L511.53 471.3L511.68 471.14L511.83 470.97L511.98 470.8L512.13 470.64L512.28 470.48L512.43 470.31L512.57 470.13L512.72 469.95L512.87 469.76L513.02 469.6L513.17 469.43L513.32 469.27L513.47 469.08L513.62 468.92L513.77 468.73L513.9 468.57L514.03 468.39L514.17 468.21L514.3 468.04L514.44 467.86L514.58 467.68L514.71 467.5L514.84 467.32L514.98 467.13L515.11 466.95L515.24 466.77L515.37 466.59L515.5 466.41L515.64 466.22L515.77 466.04L515.9 465.86L516.03 465.68L516.15 465.49L516.26 465.3L516.4 465.1L516.53 464.91L516.65 464.74L516.76 464.55L516.89 464.36L517.03 464.17L517.14 463.99L517.26 463.8L517.37 463.59L517.49 463.4L517.61 463.2L517.72 463.01L517.84 462.82L517.95 462.62L518.07 462.44L518.18 462.24L518.3 462.04L518.42 461.84L518.51 461.64L518.61 461.44L518.73 461.24L518.85 461.05L518.94 460.85L519.06 460.65L519.18 460.45L519.27 460.26L519.37 460.05L519.47 459.84L519.57 459.64L519.69 459.44L519.81 459.24L519.9 459.04L520 458.85L520.1 458.65L520.2 458.43L520.3 458.23L520.4 458.04L520.5 457.82L520.6 457.62L520.7 457.42L520.79 457.21L520.9 456.99L520.99 456.78L521.09 456.58L521.18 456.38L521.26 456.17L521.34 455.95L521.43 455.74L521.51 455.54L521.59 455.32L521.67 455.11L521.76 454.89L521.84 454.69L521.92 454.48L522 454.26L522.09 454.05L522.17 453.84L522.25 453.62L522.32 453.4L522.39 453.19L522.45 452.97L522.52 452.76L522.6 452.54L522.68 452.33L522.77 452.11L522.85 451.9L522.92 451.68L523 451.47L523.06 451.25L523.13 451.04L523.21 450.82L523.28 450.61L523.35 450.39L523.41 450.18L523.48 449.96L523.52 449.75L523.59 449.53L523.66 449.32L523.73 449.1L523.79 448.89L523.84 448.67L523.89 448.44L523.96 448.23L524.01 448.01L524.05 447.78L524.12 447.56L524.17 447.35L524.22 447.14L524.27 446.92L524.32 446.69L524.37 446.47L524.42 446.26L524.46 446.03L524.5 445.79L524.55 445.58L524.59 445.35L524.63 445.13L524.68 444.9L524.73 444.67L524.78 444.45L524.83 444.22L524.87 443.99L524.91 443.76L524.95 443.55L525 443.33L525.03 443.1L525.06 442.87L525.1 442.64L525.13 442.4L525.16 442.17L525.2 441.94L525.23 441.71L525.25 441.48L525.28 441.26L525.29 441.03L525.33 440.8L525.36 440.59L525.4 440.35L525.41 440.12L525.43 439.89L525.44 439.66L525.46 439.43L525.5 439.2L525.51 438.96L525.53 438.73L525.55 438.5L525.56 438.27L525.58 438.04L525.59 437.81L525.61 437.58L525.63 437.34L525.64 437.11L525.66 436.88L525.68 436.65L525.68 436.19L525.69 435.95L525.69 206.97L525.68 206.77L525.66 206.55L525.66 206.34L525.64 206.12L525.64 205.91L525.63 205.69L525.63 205.48L525.61 205.27L525.59 205.06L525.58 204.85L525.56 204.63L525.55 204.42L525.53 204.22L525.51 204.01L525.5 203.81L525.48 203.59L525.44 203.38L525.43 203.18L525.41 202.98L525.38 202.79L525.36 202.58L525.33 202.37L525.31 202.17L525.28 201.97L525.25 201.76L525.23 201.54L525.21 201.34L525.18 201.16L525.12 200.73L525.07 200.3L525 199.87L524.93 199.46L524.85 199.05L524.77 198.63L524.7 198.22L524.62 197.81L524.52 197.39L524.42 196.98L524.32 196.56L524.22 196.15L524.12 195.74L524.03 195.32L523.92 194.91L523.81 194.5L523.69 194.08L523.58 193.67L523.44 193.26L523.33 192.86L523.2 192.46L523.06 192.07L522.93 191.67L522.8 191.27L522.65 190.88L522.5 190.48L522.35 190.1L522.21 189.7L522.05 189.3L521.91 188.91L521.74 188.52L521.59 188.13L521.43 187.75L521.26 187.37L521.09 186.98L520.91 186.61L520.75 186.23L520.57 185.85L520.38 185.47L520.2 185.1L520.01 184.72L519.82 184.34L519.63 183.96L519.42 183.6L519.23 183.23L519.03 182.87L518.83 182.51L518.63 182.14L518.42 181.78L518.2 181.41L517.99 181.05L517.76 180.69L517.54 180.34L517.33 179.99L517.09 179.64L516.86 179.3L516.63 178.95L516.4 178.6L516.16 178.25L515.93 177.91L515.69 177.58L515.44 177.25L515.19 176.91L514.94 176.59L514.69 176.25L514.43 175.92L514.17 175.59L513.9 175.26L513.64 174.93L513.37 174.62L513.09 174.3L512.83 173.99L512.54 173.67L512.26 173.36L511.98 173.04L511.7 172.73L511.42 172.42L511.12 172.12L510.82 171.82L510.52 171.52L510.23 171.23L509.93 170.93L509.61 170.63L509.3 170.33L508.99 170.05L508.67 169.77L508.36 169.49L508.05 169.21L507.73 168.93L507.4 168.65L507.07 168.38L506.74 168.12L506.43 167.85L506.08 167.57L505.93 167.45L505.76 167.32L505.6 167.19L505.43 167.06L505.27 166.92L505.1 166.81L504.93 166.68L504.77 166.54L504.59 166.41L504.4 166.28L504.24 166.15L504.08 166.01L503.91 165.88L503.74 165.77L503.58 165.64L503.4 165.5L503.23 165.39L503.06 165.27L502.88 165.14L502.7 165.02L502.52 164.91L502.35 164.79L502.17 164.68L501.99 164.56L501.81 164.44L501.63 164.33L501.44 164.21L501.26 164.1L501.08 163.98L500.9 163.87L500.71 163.75L500.54 163.65L500.35 163.55L500.14 163.44L312.96 53.62L312.7 53.46L312.46 53.32L312.21 53.18L311.96 53.03L311.72 52.89L311.47 52.76L311.23 52.62L310.98 52.49L310.73 52.36L310.48 52.23L310.24 52.1L309.99 51.96L309.75 51.83L309.49 51.7L309.25 51.57L309 51.43L308.75 51.3L308.5 51.19L308.25 51.06L308 50.94L307.75 50.82L307.51 50.69L307.25 50.57L307 50.46L306.75 50.34L306.49 50.23L306.25 50.11L306 50.01L305.74 49.9L305.49 49.78L305.25 49.67L304.98 49.57L304.74 49.47L304.47 49.37L304.22 49.25L303.96 49.16L303.69 49.03L303.43 48.94L303.17 48.84L302.92 48.74L302.65 48.64L302.39 48.54L302.13 48.44L301.88 48.35L301.63 48.26L301.38 48.18L301.12 48.08L300.85 47.99L300.61 47.91L300.34 47.83L300.07 47.75L299.83 47.67L299.56 47.58L299.3 47.5L299.03 47.41L298.79 47.33L298.52 47.25L298.26 47.17L297.99 47.09L297.73 47.02L297.46 46.94L297.2 46.87L296.93 46.79L296.67 46.72L296.4 46.65L296.14 46.59L295.87 46.51L295.61 46.44L295.35 46.37L295.08 46.32L294.82 46.26L294.55 46.19L294.29 46.13L294.02 46.08L293.76 46.01L293.49 45.96L293.23 45.91L292.96 45.84L292.7 45.79L292.43 45.75L292.17 45.7L291.9 45.65L291.64 45.6L291.37 45.55L291.09 45.5L290.83 45.46L290.56 45.43L290.3 45.4L290.04 45.36L289.77 45.32L289.51 45.27L289.24 45.23L288.96 45.18L288.7 45.15L288.43 45.1L288.17 45.07L287.9 45.03L287.63 45L287.37 44.97L287.11 44.93L286.82 44.9L286.56 44.88L286.3 44.85L286.03 44.82L285.77 44.8L285.5 44.79L285.24 44.77L284.97 44.75L284.71 44.74L284.43 44.72L284.15 44.7L283.88 44.68L283.62 44.67L283.35 44.67L283.09 44.65L282.82 44.64L282.54 44.64L282.28 44.62L282.01 44.6L281.76 44.59L281.5 44.57L280.95 44.57L280.69 44.55L280.16 44.55L279.89 44.66L279.08 44.66Z" id="b77j7pqRs"></path><path d="M154.02 490.02L154.02 147.26L225.73 147.26L225.73 272.11L344.69 272.11L344.69 147.26L416.6 147.26L416.6 490.02L344.69 490.02L344.69 340.15L225.73 340.15L225.73 490.02L154.02 490.02Z" id="d5TiVEjksO"></path></defs><g><g><use xlink:href="#awWNUsrFV" opacity="1" fill="#ff4088" fill-opacity="1"></use><g><use xlink:href="#awWNUsrFV" opacity="1" fill-opacity="0" stroke="#000000" stroke-width="1" stroke-opacity="0"></use></g></g><g><use xlink:href="#b77j7pqRs" opacity="1" fill="#c9177e" fill-opacity="1"></use><g><use xlink:href="#b77j7pqRs" opacity="1" fill-opacity="0" stroke="#000000" stroke-width="1" stroke-opacity="0"></use></g></g><g><use xlink:href="#d5TiVEjksO" opacity="1" fill="#ffffff" fill-opacity="1"></use><g><use xlink:href="#d5TiVEjksO" opacity="1" fill-opacity="0" stroke="#000000" stroke-width="1" stroke-opacity="0"></use></g></g></g></svg>