<svg xmlns="http://www.w3.org/2000/svg" viewBox="0 0 96.45 116.15"><defs><style>.cls-1{fill:#fe3e00;}.cls-2{fill:#fefefe;}</style></defs><g id="Layer_2" data-name="Layer 2"><g id="Layer_1-2" data-name="Layer 1"><path class="cls-1" d="M60.37,0c26.94,0,43.76,26,32.55,49.5a6,6,0,0,0-.19,5.12c6,16.82,1.17,30.7-14,40.34C70.36,100.35,62,105.8,53.53,111a35.16,35.16,0,0,1-42-4.13C-.16,96.44-3.24,81,3.58,66.5a6,6,0,0,0,.19-5.12c-6-16.7-1-30.71,14-40.35Q30,13.25,42.14,5.46C47.88,1.81,54.08-.3,60.37,0Z"/><path class="cls-2" d="M15,74.5c4,2.34,7.38,4.83,11.47,5.83,1.69.42,1.49,1.86,1.83,3.12,1.35,4.91,5.18,6.71,9.49,4.08,8.94-5.46,17.73-11.15,26.51-16.85,2.91-1.9,3.8-4.67,1.91-7.75S61.13,59,58,60.7c-3.94,2.11-7.5,5-11.46,7-7.92,4.18-15.8,3.61-23-1.65C16.55,61,13.86,54,15.34,45.51a17.5,17.5,0,0,1,8.17-12c9.07-5.88,18.15-11.73,27.35-17.39a21.13,21.13,0,0,1,23.89,1.36,20.92,20.92,0,0,1,7.86,20.72c-.72,3.45-1.76,3.11-4.14,1.5a39.6,39.6,0,0,0-7.09-3.58c-1.77-.73-2.74-1.42-3.16-3.65-.9-4.85-5.2-6.59-9.51-3.94-8.77,5.39-17.39,11-26.07,16.58-3.16,2-4.3,4.74-2.2,8s5.21,4,8.63,2,6.71-4.32,10.14-6.35c7.39-4.39,14.93-4.27,22.2.07S82,59.63,81.51,68.05c-.36,6.73-3.83,11.51-9.33,15C63.77,88.43,55.38,93.81,47,99.13s-17.55,5.05-25.15-.61C14.5,93.09,12,84.66,15,74.5Z"/></g></g></svg>