<?xml version="1.0" standalone="no"?>
<!DOCTYPE svg PUBLIC "-//W3C//DTD SVG 20010904//EN"
 "http://www.w3.org/TR/2001/REC-SVG-20010904/DTD/svg10.dtd">
<svg version="1.0" xmlns="http://www.w3.org/2000/svg"
 width="583.000000pt" height="583.000000pt" viewBox="0 0 583.000000 583.000000"
 preserveAspectRatio="xMidYMid meet">
<metadata>
Created by potrace 1.11, written by Peter Selinger 2001-2013
</metadata>
<g transform="translate(0.000000,583.000000) scale(0.100000,-0.100000)"
fill="#000000" stroke="none">
<path d="M3061 3624 c-261 -70 -428 -347 -367 -607 17 -72 70 -187 86 -187 6
0 81 39 167 87 206 115 401 202 590 266 l155 52 -6 30 c-21 109 -148 265 -258
319 -114 56 -252 71 -367 40z"/>
<path d="M490 3364 c0 -49 57 -285 101 -418 123 -374 328 -706 614 -991 388
-389 852 -624 1401 -710 142 -23 434 -30 590 -16 413 39 812 179 1150 403
l109 73 -95 8 c-446 37 -781 108 -1110 234 -367 141 -676 317 -1185 678 -405
287 -603 414 -812 519 -212 106 -444 184 -655 221 -104 19 -108 19 -108 -1z"/>
<path d="M4155 3124 c-374 -31 -712 -142 -1116 -366 -230 -128 -443 -254 -446
-264 -4 -13 238 -155 406 -239 461 -230 929 -345 1474 -362 l198 -6 71 69
c207 204 406 497 526 775 75 173 78 153 -23 199 -179 83 -393 146 -597 175
-104 15 -401 26 -493 19z"/>
</g>
</svg>
