<?xml version="1.0" encoding="UTF-8" standalone="no"?>
<svg
   xmlns:dc="http://purl.org/dc/elements/1.1/"
   xmlns:cc="http://creativecommons.org/ns#"
   xmlns:rdf="http://www.w3.org/1999/02/22-rdf-syntax-ns#"
   xmlns:svg="http://www.w3.org/2000/svg"
   xmlns="http://www.w3.org/2000/svg"
   xmlns:sodipodi="http://sodipodi.sourceforge.net/DTD/sodipodi-0.dtd"
   xmlns:inkscape="http://www.inkscape.org/namespaces/inkscape"
   width="24.226521mm"
   height="23.628592mm"
   viewBox="0 0 24.226521 23.628592"
   version="1.1"
   id="svg412"
   sodipodi:docname="github.svg"
   inkscape:version="1.0.1 (3bc2e813f5, 2020-09-07)">
  <defs
     id="defs406" />
  <sodipodi:namedview
     id="base"
     pagecolor="#ffffff"
     bordercolor="#666666"
     borderopacity="1.0"
     inkscape:pageopacity="0.0"
     inkscape:pageshadow="2"
     inkscape:zoom="2.7141474"
     inkscape:cx="53.381983"
     inkscape:cy="58.196238"
     inkscape:document-units="mm"
     inkscape:current-layer="layer1"
     inkscape:document-rotation="0"
     showgrid="false"
     inkscape:window-width="1920"
     inkscape:window-height="1016"
     inkscape:window-x="0"
     inkscape:window-y="27"
     inkscape:window-maximized="1"
     fit-margin-top="0"
     fit-margin-left="0"
     fit-margin-right="0"
     fit-margin-bottom="0" />
  <metadata
     id="metadata409">
    <rdf:RDF>
      <cc:Work
         rdf:about="">
        <dc:format>image/svg+xml</dc:format>
        <dc:type
           rdf:resource="http://purl.org/dc/dcmitype/StillImage" />
        <dc:title></dc:title>
      </cc:Work>
    </rdf:RDF>
  </metadata>
  <g
     inkscape:label="Layer 1"
     inkscape:groupmode="layer"
     id="layer1"
     transform="translate(-160.24386,-180.19761)">
    <path
       d="m 172.35603,180.19761 c -6.68817,0 -12.11217,5.42326 -12.11217,12.11365 0,5.35113 3.4705,9.89171 8.28398,11.49422 0.60606,0.1108 0.82692,-0.26324 0.82692,-0.58449 0,-0.28778 -0.0104,-1.04926 -0.0164,-2.05984 -3.36937,0.73173 -4.08028,-1.62408 -4.08028,-1.62408 -0.55102,-1.3995 -1.34521,-1.77206 -1.34521,-1.77206 -1.09983,-0.75106 0.0833,-0.73619 0.0833,-0.73619 1.21583,0.0855 1.85535,1.24855 1.85535,1.24855 1.08048,1.85088 2.83544,1.31622 3.52552,1.00612 0.11006,-0.78229 0.42313,-1.31621 0.76891,-1.61887 -2.68969,-0.30637 -5.5177,-1.34522 -5.5177,-5.98693 0,-1.3229 0.47221,-2.40339 1.24706,-3.25038 -0.12493,-0.30638 -0.54061,-1.53782 0.11898,-3.20577 0,0 1.01654,-0.32571 3.3307,1.24111 0.96597,-0.26845 2.00258,-0.4023 3.0325,-0.40751 1.02918,0.005 2.06505,0.13906 3.03251,0.40751 2.31267,-1.56682 3.32772,-1.24111 3.32772,-1.24111 0.66108,1.66795 0.2454,2.89939 0.12121,3.20577 0.77635,0.84699 1.24483,1.92748 1.24483,3.25038 0,4.65361 -2.83247,5.67758 -5.53034,5.97727 0.43428,0.37404 0.82171,1.1132 0.82171,2.24351 0,1.61887 -0.0149,2.92542 -0.0149,3.32252 0,0.32422 0.21862,0.70124 0.83286,0.583 4.80976,-1.60548 8.27729,-6.14234 8.27729,-11.49273 0,-6.69039 -5.42401,-12.11365 -12.1144,-12.11365"
       style="fill:#ffffff;fill-opacity:1;fill-rule:evenodd;stroke:none;stroke-width:0.0743625"
       id="path24" />
  </g>
</svg>
