<?xml version="1.0" encoding="UTF-8" standalone="no"?>
<!DOCTYPE svg PUBLIC "-//W3C//DTD SVG 1.1//EN" "http://www.w3.org/Graphics/SVG/1.1/DTD/svg11.dtd">
<svg version="1.1" xmlns="http://www.w3.org/2000/svg" xmlns:xlink="http://www.w3.org/1999/xlink" preserveAspectRatio="xMidYMid meet" viewBox="133.89902459887517 147.83494880546078 374.2019508022496 346.33010238907843" width="324.43" height="300"><defs><path d="M484.29 279.88C484.3 279.91 484.31 279.94 484.32 279.97C484.31 279.94 484.3 279.9 484.29 279.87C484.29 279.87 484.29 279.87 484.29 279.87C484.29 279.87 484.29 279.86 484.29 279.86C480.38 267.82 449.07 171.44 445.16 159.39C443.02 153.04 437.13 148.78 430.37 148.84C423.6 148.87 417.87 153.05 415.78 159.48C413.3 167.11 400.92 205.22 378.64 273.84L261.43 273.84C239.11 205.22 226.7 167.1 224.22 159.47C222.13 153.05 216.4 148.87 209.63 148.83C209.6 148.83 209.57 148.83 209.54 148.83C202.88 148.83 196.97 153.07 194.81 159.49C192.21 167.51 179.2 207.63 155.79 279.85C155.78 279.86 155.78 279.87 155.78 279.87C155.78 279.87 155.78 279.87 155.78 279.87C155.77 279.9 155.77 279.93 155.76 279.96C155.77 279.94 155.77 279.91 155.78 279.88C153.8 285.95 137.97 334.52 135.99 340.59C133.02 349.76 136.25 359.72 144.03 365.38C161.11 377.79 297.78 477.09 314.86 489.5C314.89 489.52 314.91 489.53 314.94 489.55C315.01 489.6 315.08 489.66 315.16 489.71C315.09 489.66 315.02 489.61 314.95 489.56C314.95 489.56 314.95 489.56 314.95 489.56C314.96 489.57 314.98 489.57 314.99 489.58C315 489.59 315.01 489.59 315.02 489.6C315.02 489.6 315.02 489.6 315.02 489.6C315.29 489.78 315.56 489.95 315.85 490.11C315.88 490.13 315.92 490.16 315.96 490.18C315.96 490.18 315.96 490.18 315.96 490.18C315.99 490.19 316.01 490.21 316.03 490.22C316.05 490.23 316.07 490.23 316.09 490.24C316.1 490.25 316.11 490.25 316.13 490.26C316.16 490.27 316.19 490.28 316.23 490.3C316.37 490.37 316.53 490.43 316.68 490.49C316.83 490.55 316.96 490.62 317.11 490.67C317.12 490.67 317.12 490.67 317.13 490.68C317.15 490.68 317.18 490.7 317.2 490.71C317.23 490.72 317.26 490.73 317.29 490.74C317.3 490.74 317.32 490.74 317.33 490.75C317.37 490.76 317.41 490.76 317.45 490.78C317.46 490.78 317.48 490.78 317.49 490.79C317.7 490.85 317.91 490.89 318.12 490.94C318.2 490.96 318.28 490.98 318.37 491C318.38 491 318.39 491.01 318.4 491.01C318.43 491.01 318.46 491.02 318.49 491.03C318.53 491.04 318.57 491.05 318.62 491.06C318.66 491.06 318.69 491.06 318.73 491.07C318.74 491.07 318.74 491.07 318.75 491.07C318.75 491.07 318.75 491.07 318.75 491.07C319.16 491.12 319.56 491.17 319.98 491.17C319.98 491.17 319.98 491.17 319.99 491.17C319.99 491.17 319.99 491.17 319.99 491.17C319.99 491.17 319.99 491.17 319.99 491.17C319.99 491.17 319.99 491.17 319.99 491.17C319.99 491.17 319.99 491.17 319.99 491.17C320.41 491.17 320.82 491.12 321.22 491.07C321.23 491.07 321.23 491.07 321.23 491.07C321.24 491.07 321.24 491.07 321.25 491.07C321.28 491.06 321.32 491.06 321.36 491.06C321.4 491.05 321.45 491.04 321.49 491.03C321.52 491.02 321.55 491.01 321.57 491.01C321.59 491.01 321.6 491 321.61 491C321.69 490.98 321.78 490.96 321.86 490.94C322.07 490.89 322.28 490.85 322.48 490.79C322.5 490.78 322.51 490.78 322.53 490.78C322.57 490.77 322.61 490.76 322.65 490.75C322.66 490.74 322.67 490.74 322.69 490.74C322.72 490.73 322.75 490.72 322.78 490.71C322.8 490.7 322.82 490.68 322.85 490.68C322.85 490.67 322.86 490.67 322.87 490.67C323.02 490.61 323.17 490.54 323.32 490.48C323.46 490.42 323.61 490.37 323.74 490.3C323.78 490.29 323.81 490.28 323.85 490.26C323.86 490.25 323.87 490.25 323.89 490.24C323.91 490.23 323.93 490.23 323.94 490.22C323.97 490.21 323.99 490.19 324.02 490.18C324.02 490.18 324.02 490.18 324.02 490.18C324.06 490.16 324.09 490.13 324.13 490.1C324.42 489.95 324.69 489.78 324.95 489.6C324.97 489.59 325 489.58 325.02 489.56C325.02 489.56 325.03 489.56 325.04 489.55C325.06 489.53 325.09 489.52 325.12 489.5C342.2 477.09 478.89 377.79 495.97 365.38C503.75 359.72 506.98 349.76 504.01 340.59C500.06 328.45 486.27 285.96 484.29 279.88ZM463.99 273.84L396.98 273.84L430.48 170.68L463.99 273.84ZM444.45 308.8L343.61 438.01L391.31 291.28L458.12 291.28L444.45 308.8ZM311.69 485.14C311.7 485.17 311.72 485.19 311.73 485.22C311.72 485.19 311.7 485.17 311.69 485.14C311.69 485.14 311.69 485.14 311.69 485.14ZM181.94 291.28L181.94 291.28L248.76 291.28L296.4 438.02L181.94 291.28ZM243.09 273.84L176.08 273.84L209.52 170.67L243.09 273.84ZM152.58 345.99C153.56 342.98 158.46 327.94 167.29 300.86L275.05 439.01L154.29 351.27C152.73 349.05 152.16 347.29 152.58 345.99ZM314.46 489.19C314.46 489.18 314.45 489.17 314.44 489.17C314.38 489.11 314.31 489.06 314.25 489C314.12 488.89 314 488.78 313.88 488.67C313.89 488.68 313.9 488.68 313.91 488.69C313.93 488.7 313.94 488.71 313.95 488.73C314.21 488.97 314.47 489.19 314.74 489.4C314.75 489.4 314.75 489.4 314.75 489.41C314.77 489.42 314.78 489.43 314.79 489.44C314.71 489.38 314.64 489.33 314.56 489.27C314.53 489.25 314.49 489.22 314.46 489.19ZM291.96 367.87L267.1 291.28L372.97 291.28L319.99 454.22L291.96 367.87ZM325.54 489.17C325.53 489.18 325.52 489.18 325.51 489.19C325.48 489.22 325.45 489.25 325.41 489.27C325.34 489.33 325.26 489.38 325.19 489.44C325.2 489.43 325.21 489.42 325.23 489.41C325.23 489.41 325.23 489.4 325.23 489.4C325.51 489.19 325.77 488.97 326.02 488.73C326.03 488.72 326.04 488.72 326.05 488.71C326.06 488.69 326.08 488.68 326.09 488.67C325.97 488.79 325.85 488.89 325.73 489C325.67 489.06 325.6 489.12 325.54 489.17ZM364.97 438.99L472.77 300.87C481.56 327.93 486.44 342.97 487.42 345.98C488.05 347.94 487.37 350.07 485.72 351.27C469.62 362.97 429.37 392.2 364.97 438.99Z" id="e1gM688zGp"></path></defs><g><g><use xlink:href="#e1gM688zGp" opacity="1" fill="#ffffff" fill-opacity="1"></use><g><use xlink:href="#e1gM688zGp" opacity="1" fill-opacity="0" stroke="#000000" stroke-width="1" stroke-opacity="0"></use></g></g></g></svg>