<svg id="Capa_1" data-name="Capa 1" xmlns="http://www.w3.org/2000/svg" viewBox="0 0 314.07 314.06"><defs><style>.cls-1{fill:#fff;}</style></defs><title>play-button</title><g id="_356._Play" data-name="356. Play"><path class="cls-1" d="M293,78.53A157,157,0,1,0,235.53,293,157,157,0,0,0,293,78.53ZM219.83,265.8a125.6,125.6,0,1,1,46-171.57A125.59,125.59,0,0,1,219.83,265.8Zm-6.28-115.15L131.34,102.7c-7.49-4.37-13.53-.87-13.49,7.79l.42,95.18c0,8.66,6.15,12.19,13.67,7.85l81.58-47.11C221,162.08,221,155,213.55,150.65Z" transform="translate(0 0)"/></g></svg>